<svg xmlns="http://www.w3.org/2000/svg" xml:space="preserve" width="800" height="800" viewBox="0 0 502.664 502.664"><path d="m0 253.209 135.81 80.868 135.896-80.868-135.896-80.805zM126.987 106.765v35.484h-17.731l24.936 24.957 24.849-24.957h-17.645v-35.484zM126.987 340.764v35.484h-17.731l24.936 24.893 24.849-24.893h-17.645v-35.484zM327.444 247.406l-51.424.022v14.495l51.424-.043v17.753l24.915-24.979-24.915-24.914zM30.372 489.517h154.619l39.237-77.245H69.544zM459.285 209.312h-57.378c-23.9 0-43.4 19.457-43.4 43.4 0 24.008 19.478 43.465 43.4 43.465h57.378c23.944 0 43.379-19.457 43.379-43.465 0-23.943-19.435-43.378-43.379-43.4M93.294 99.991h89.13c23.987 0 43.487-19.478 43.487-43.4 0-23.987-19.5-43.444-43.487-43.444h-89.13c-23.965 0-43.444 19.457-43.465 43.444 0 23.944 19.499 43.4 43.465 43.4"/></svg>