<svg xmlns="http://www.w3.org/2000/svg" xml:space="preserve" width="800" height="800" viewBox="0 0 32 32"><path d="M29.4 23.9c-.3-1.6-1.2-3-2.4-4l-1.9-1.6c-.4-.3-.8-.7-1.1-1.1V21c0 .6-.4 1-1 1s-1-.4-1-1V11c0-5-2.6-9-6-9s-6 4-6 9v10c0 .6-.4 1-1 1s-1-.4-1-1v-3.8c-.3.4-.7.8-1.1 1.1L5 19.9c-1.2 1-2.1 2.4-2.4 4L2 26.8c-.1.3 0 .6.2.8.2.3.5.4.8.4h7v1c0 .6.4 1 1 1h4v-9c0-.6.4-1 1-1s1 .4 1 1v9h4c.6 0 1-.4 1-1v-1h7c.3 0 .6-.1.8-.4.2-.2.3-.5.2-.8zM18 11c-.6 0-1-.4-1-1s-.4-1-1-1-1 .4-1 1-.4 1-1 1-1-.4-1-1c0-1.7 1.3-3 3-3s3 1.3 3 3c0 .6-.4 1-1 1"/></svg>