<svg xmlns="http://www.w3.org/2000/svg" xml:space="preserve" width="800" height="800" viewBox="0 0 455.683 455.683"><path d="M383.183 143.241c0-.129.043-.949.043-.949-.022-67.215-54.704-121.896-121.94-121.896-46.658 0-87.362 27.309-107.789 68.164-10.462-8.111-22.434-13.978-35.98-13.978-33.176 0-60.182 26.985-60.182 60.161 0 0 .41 2.934.733 5.199C24.159 151.481 0 182.5 0 219.17c0 22.649 8.844 44.004 24.85 60.01 16.027 16.027 37.361 24.871 60.01 24.871h289.501c44.846 0 81.322-36.455 81.322-81.279.021-41.718-31.99-74.958-72.5-79.531m-8.8 136.823H84.859c-16.243 0-31.536-6.363-43.055-17.861-11.476-11.497-17.817-26.791-17.817-43.055 0-29.185 20.773-54.315 49.332-59.794l11.174-2.135-1.855-12.856-1.316-9.621c0-19.975 16.221-36.174 36.196-36.174a36.28 36.28 0 0 1 29.746 15.531l13.59 19.565 7.571-22.563c13.46-39.906 50.756-66.697 92.819-66.697 54.035 0 97.974 43.918 97.974 97.91l-1.208 22.973 13.525.237 2.826-.086c31.623 0 57.357 25.712 57.357 57.335 0 31.557-25.713 57.291-57.335 57.291m3.623 112.233v42.991h-84.277v-42.991c0-8.758 7.161-15.876 15.811-15.876h52.654c8.672 0 15.791 7.118 15.812 15.876M200.824 344.82c0-16.005 12.986-28.991 28.991-28.991s28.97 12.986 28.97 28.991c0 16.006-12.986 28.991-28.97 28.991-16.005 0-28.991-12.964-28.991-28.991m106.064 0c0-16.005 12.986-28.991 28.991-28.991 16.006 0 28.991 12.986 28.991 28.991 0 16.006-12.986 28.991-28.991 28.991s-28.991-12.964-28.991-28.991m-212.084 0c0-16.005 12.986-28.991 28.991-28.991s28.991 12.986 28.991 28.991c0 16.006-12.986 28.991-28.991 28.991s-28.991-12.964-28.991-28.991m177.16 47.477v42.991H187.73v-42.991c0-8.758 7.097-15.876 15.833-15.876h52.568c8.737 0 15.812 7.118 15.833 15.876m-106.02 0v42.991H81.667v-42.991c0-8.758 7.162-15.876 15.811-15.876h52.654c8.651 0 15.812 7.118 15.812 15.876" style="fill:#010002"/></svg>