<svg xmlns="http://www.w3.org/2000/svg" xml:space="preserve" width="800" height="800" viewBox="0 0 502.642 502.642"><circle cx="251.364" cy="76.188" r="65.359"/><path d="m343.817 168.662-56.58-12.533-11.627-11.626-17.127 18.594 10.203 85.269h97.435zM215.363 156.129l-56.537 12.533-22.197 79.661H234l10.203-85.248-17.192-18.572z"/><circle cx="108.264" cy="329.364" r="61.714"/><path d="m142.108 404.797-10.893-11.001-16.2 17.516 9.578 80.48h91.913l-20.988-75.239zM74.354 404.797l-53.322 11.756L0 491.814h91.892l9.599-80.502-16.157-17.473zM456.179 329.386c0-34.082-27.632-61.671-61.779-61.671-33.996 0-61.628 27.589-61.628 61.671s27.654 61.649 61.628 61.649c34.104 0 61.779-27.567 61.779-61.649M481.654 416.553l-53.366-11.756-10.937-11.001-16.178 17.473 9.621 80.502h91.848zM360.534 404.797l-53.366 11.756-21.01 75.261h91.913l9.621-80.502-16.265-17.473z"/></svg>