<svg xmlns="http://www.w3.org/2000/svg" xml:space="preserve" width="800" height="800" viewBox="0 0 32 32"><path d="M19.3 11c-.2-5.5-2-9-3.3-9s-3.1 3.5-3.3 9z"/><path d="M25.6 10.3V10c0-4.1-3-7.6-7.1-8.7C20 3 20.9 6.2 21.2 9.6c0 .5.4 1 .8 1.2l-6 5-6-5c.5-.2.8-.7.8-1.2.3-3.4 1.2-6.6 2.7-8.3-4.1 1-7.1 4.5-7.1 8.7v.4c0 .1.1.1.1.2l.1.1 7.1 5.8c-.6.3-1.1.7-1.5 1.3l-4.6 5.7c-.6.7-.8 1.7-.7 2.7.1.9.6 1.7 1.3 2.2 2.4 1.7 5 2.6 7.7 2.6s5.3-.9 7.7-2.6c.7-.5 1.1-1.3 1.3-2.2.1-1-.1-1.9-.7-2.7l-4.6-5.7c-.4-.5-.9-1-1.5-1.3l7.1-5.8.1-.1c0-.1.1-.1.1-.2.1 0 .1-.1.2-.1m-6.1 12.1c.1.5-.2 1.1-.7 1.2q-1.35.3-2.7.3c-1.35 0-1.8-.1-2.7-.3-.5-.1-.9-.7-.7-1.2.1-.5.7-.9 1.2-.7 1.5.4 3.1.4 4.6 0 .3-.2.9.1 1 .7"/></svg>