<svg xmlns="http://www.w3.org/2000/svg" xml:space="preserve" width="800" height="800" viewBox="0 0 32 32"><path d="M20.8 19.8c-2.4 2.4-2.4 6.4 0 8.9.2.2.4.3.7.3s.5-.1.7-.3l3-3 2 2c.2.2.5.3.7.3s.5-.1.7-.3c.4-.4.4-1 0-1.4l-2-2 3-3c.4-.4.4-1 0-1.4-2.3-2.5-6.3-2.5-8.8-.1M21.7 15.3l-2.8-2.8 1.6-1.6 2.8 2.8c.2.2.5.3.7.3s.5-.1.7-.3l1.8-1.8-8.4-8.4-1.8 1.8c-.4.4-.4 1 0 1.4l2.8 2.8-1.6 1.6-7.8-7.8c-.4-.4-1-.4-1.4 0l-4 4c-.4.4-.4 1 0 1.4l7.8 7.8-1.6 1.6-2.8-2.8c-.4-.4-1-.4-1.4 0l-1.8 1.8 8.4 8.4 1.8-1.8c.4-.4.4-1 0-1.4l-2.8-2.8 1.6-1.6 2.8 2.8c.2.2.5.3.7.3s.5-.1.7-.3l4-4c.4-.4.4-1 0-1.4M1.3 20.3c-.4.4-.4 1 0 1.4l7 7c.2.2.4.3.7.3s.5-.1.7-.3l1.8-1.8-8.4-8.4zM29.7 8.7c.4-.4.4-1 0-1.4l-7-7c-.4-.4-1-.4-1.4 0l-1.8 1.8 8.4 8.4z"/></svg>