<svg xmlns="http://www.w3.org/2000/svg" xml:space="preserve" width="800" height="800" viewBox="0 0 32 32"><path d="M16 4c-3.3 0-6 2.7-6 6s2.7 6 6 6 6-2.7 6-6-2.7-6-6-6m0 9c-1.7 0-3-1.3-3-3 0-.6.4-1 1-1h4c.6 0 1 .4 1 1 0 1.7-1.3 3-3 3"/><path d="m27.2 15.8-1.4-1.4c-.7-.7-1.5-1.2-2.3-1.6-1.1 3-4.1 5.2-7.5 5.2s-6.4-2.2-7.5-5.2c-.9.4-1.7.9-2.3 1.6l-1.4 1.4c-.6.6-.9 1.4-.9 2.2s.3 1.6.9 2.2c1.2 1.2 3.2 1.2 4.4 0l.8-.8V30c0 .6.4 1 1 1h4v-7c0-.5.5-1 1-1s1 .5 1 1v7h4c.6 0 1-.4 1-1V19.4l.8.8c1.2 1.2 3.2 1.2 4.4 0 .6-.6.9-1.4.9-2.2s-.3-1.6-.9-2.2M7.7 11c.1-.1.3-.1.4-.1v-.8c0-4.4 3.6-8 8-8s8 3.6 8 8v.8c.1 0 .3.1.4.1.2.1.4.2.7.3V3c0-1.1-.9-2-2-2H9c-1.1 0-2 .9-2 2v8.3c.2-.1.4-.2.7-.3"/></svg>