<svg xmlns="http://www.w3.org/2000/svg" xml:space="preserve" width="800" height="800" viewBox="0 0 32 32"><path d="M12 16c-.4 0-.7-.2-.9-.5l-6-10c-.2-.4-.1-.9.2-1.2s.8-.4 1.2-.2l10 6c.3.2.5.5.5.9 0 2.8-2.2 5-5 5M25.8 24.5c-3.1 3-7.2 4.7-11.5 4.7-.8 0-1.5-.1-2.2-.2 0 .3-.1.7-.1 1 0 .6.4 1 1 1h14c.6 0 1-.4 1-1 0-2.1-.8-4.1-2.2-5.5"/><path d="M24.5 2.4C22-.1 16 1.9 10.3 7.3c-.4.4-.4 1 0 1.4s1 .4 1.4 0c5-4.7 10-6.4 11.4-4.9 1.5 1.5-.5 7-5.6 12.1-5 5.1-10.5 7.1-12 5.6-1.3-1.3-.1-5.8 4.3-10.8.4-.4.3-1-.1-1.4s-1.1-.3-1.4.1c-4.9 5.5-6.7 11.1-4.2 13.5 2.7 2.7 6.4 4.2 10.2 4.2s7.5-1.5 10.2-4.2c5.7-5.7 5.7-14.8 0-20.5"/></svg>