<svg xmlns="http://www.w3.org/2000/svg" xml:space="preserve" width="800" height="800" viewBox="0 0 502.664 502.664"><path d="M176.632 205.742c15.553 2.783 31.731 4.702 48.707 4.702 95.947 0 173.731-47.132 173.731-105.201C399.07 47.111 321.308 0 225.361 0 129.306 0 51.587 47.111 51.587 105.222c0 35.7 29.574 67.171 74.592 86.218l-47.197 61.692zM289.62 80.006c12.209 0 22.089 9.879 22.089 22.088 0 12.231-9.901 22.11-22.089 22.11-12.209 0-22.11-9.879-22.11-22.11 0-12.209 9.901-22.088 22.11-22.088m-66.783 0c12.231 0 22.11 9.901 22.11 22.11 0 12.231-9.901 22.11-22.11 22.11s-22.132-9.879-22.132-22.11 9.923-22.11 22.132-22.11m-66.783 0c12.209 0 22.11 9.901 22.11 22.11 0 12.231-9.901 22.11-22.11 22.11s-22.088-9.879-22.088-22.11 9.9-22.11 22.088-22.11M451.077 354.732c0-58.09-77.741-105.222-173.817-105.222-95.925 0-173.71 47.111-173.688 105.222 0 58.09 77.763 105.201 173.71 105.201 16.998 0 33.154-1.898 48.728-4.659l97.672 47.391-47.197-61.757c45.019-19.005 74.592-50.477 74.592-86.176m-236.07 17.601c-12.187 0-22.088-9.879-22.088-22.11s9.901-22.11 22.088-22.11c12.231 0 22.132 9.879 22.11 22.11.021 12.231-9.88 22.11-22.11 22.11m66.826 0c-12.231 0-22.11-9.879-22.11-22.11s9.879-22.11 22.11-22.11 22.11 9.879 22.11 22.11-9.879 22.11-22.11 22.11m66.783 0c-12.188 0-22.067-9.879-22.067-22.11s9.879-22.11 22.067-22.11c12.209 0 22.11 9.879 22.11 22.11s-9.879 22.11-22.11 22.11" style="fill:#010002"/></svg>