<svg xmlns="http://www.w3.org/2000/svg" xml:space="preserve" width="800" height="800" viewBox="0 0 32 32"><path d="M30 10h-2.6l-1-1 1-1H30c.6 0 1-.4 1-1s-.4-1-1-1h-3c-.3 0-.5.1-.7.3L24.6 8H21c-.6 0-1 .4-1 1v7h-7v-6h2c2.2 0 4-1.8 4-4s-1.8-4-4-4H9C6.8 2 5 3.8 5 6s1.8 4 4 4h2v6H8c-.5 0-.9.3-1 .7L5.4 23C3.5 23 2 24.6 2 26.5S3.6 30 5.5 30c1.8 0 3.2-1.3 3.4-3H12c.2 1.7 1.7 3 3.4 3 1.8 0 3.2-1.3 3.4-3h3.1c.2 1.7 1.7 3 3.4 3 1.9 0 3.5-1.6 3.5-3.5s-1.5-3.4-3.4-3.5L24 16.7c-.1-.4-.5-.7-1-.7h-1v-6h2.6l1.7 1.7c.2.2.4.3.7.3h3c.6 0 1-.4 1-1s-.4-1-1-1M14 5h1c.6 0 1 .4 1 1s-.4 1-1 1h-1c-.6 0-1-.4-1-1s.4-1 1-1m-4 2H9c-.6 0-1-.4-1-1s.4-1 1-1h1c.6 0 1 .4 1 1s-.4 1-1 1M5.5 28c-.8 0-1.5-.7-1.5-1.5S4.7 25 5.5 25s1.5.7 1.5 1.5S6.3 28 5.5 28m20-3c.8 0 1.5.7 1.5 1.5s-.7 1.5-1.5 1.5-1.5-.7-1.5-1.5.7-1.5 1.5-1.5m-10 3c-.8 0-1.5-.7-1.5-1.5s.7-1.5 1.5-1.5 1.5.7 1.5 1.5-.7 1.5-1.5 1.5m2.5-7h-5c-.6 0-1-.4-1-1s.4-1 1-1h5c.6 0 1 .4 1 1s-.4 1-1 1"/></svg>