<svg xmlns="http://www.w3.org/2000/svg" xml:space="preserve" viewBox="0 0 455.661 455.661"><path d="M437.326 1.337c-7.701 0-14.237 5.091-16.976 12.295-31.774 16.545-105.611 53.97-160.012 74.721-101.857 38.935-190.729 49.138-190.729 49.138v146.617s30.415 3.538 75.886 14.172l.69 136.629c.065 10.699 8.93 19.457 19.673 19.414l31.774-.151c10.742-.086 19.457-8.887 19.435-19.673l-.647-116.568c14.237 4.551 28.905 9.599 43.94 15.358 54.38 20.773 128.238 58.198 160.055 74.7 2.718 7.205 9.254 12.295 16.933 12.295 10.074 0 18.314-8.758 18.314-19.543V20.902c-.022-10.764-8.284-19.565-18.336-19.565M0 139.153h53.345v143.338H0z" style="fill:#010002"/></svg>