<svg xmlns="http://www.w3.org/2000/svg" xml:space="preserve" width="800" height="800" viewBox="0 0 32 32"><path d="M29 16h-2.6l1.6-4.7c.2-.5-.1-1.1-.6-1.3s-1.1.1-1.3.6L24.3 16H14v-3c0-.3-.1-.5-.3-.7l-1.8-1.8c.7-1 1.1-2.2 1.1-3.5 0-1.6-.6-3.1-1.8-4.2-.4-.4-1-.4-1.4 0L7 5.6 3.7 2.3c-.4-.4-1-.4-1.4 0s-.4 1 0 1.4L5.6 7 2.8 9.8c-.4.4-.4 1 0 1.4C3.9 12.4 5.4 13 7 13c1.3 0 2.5-.4 3.5-1.1l1.5 1.5V16H3c-.6 0-1 .4-1 1v4c0 .3.1.6.3.8l3 2.6c-.2.5-.3 1-.3 1.6 0 2.2 1.8 4 4 4s3.9-1.7 4-3.9h6c0 2.2 1.8 3.9 4 3.9s4-1.8 4-4c0-.6-.1-1.1-.4-1.6l3-2.6c.2-.2.3-.5.3-.8v-4c.1-.6-.3-1-.9-1M9 28c-1.1 0-2-.9-2-2s.9-2 2-2 2 .9 2 2-.9 2-2 2m14 0c-1.1 0-2-.9-2-2s.9-2 2-2 2 .9 2 2-.9 2-2 2"/></svg>