<svg xmlns="http://www.w3.org/2000/svg" xml:space="preserve" width="800" height="800" viewBox="0 0 502.642 502.642"><path d="m368.278 256.746-134.3 134.386h45.73v33.78H176.815V230.883h120.43c35.527 0 64.518-28.948 64.518-64.518 0-33.154-25.389-59.492-57.572-63.159 0-.108.022-.733.022-.733.043-53.409-43.379-96.767-96.745-96.767-37.037 0-69.393 21.743-85.593 54.143-8.283-6.471-17.861-11.131-28.538-11.131-26.403 0-47.801 21.398-47.801 47.779 0 0 .345 2.308.518 4.12C19.176 109.763 0 134.418 0 163.474c0 18.033 7.032 35.009 19.737 47.607 12.748 12.77 29.66 19.824 47.671 19.824h82.314V452.07h129.986v44.867h177.269V391.154h45.665zM33.241 197.621c-9.146-9.06-14.215-21.204-14.215-34.147 0-23.124 16.502-43.055 39.194-47.456l8.844-1.661-1.424-10.246-1.1-7.614c0-15.811 12.899-28.732 28.775-28.732a28.66 28.66 0 0 1 23.577 12.36l10.829 15.488 6.04-17.925c10.591-31.623 40.273-52.935 73.707-52.935 42.84 0 77.741 34.858 77.741 77.741l-.906 18.314 10.721.173 2.243-.086c25.022 0 45.536 20.363 45.536 45.493 0 25.065-20.514 45.45-45.536 45.45H67.409c-12.921-.002-25.066-5.007-34.168-14.217M395.5 487.791h-52.59v-92.496h52.59z" style="fill:#010002"/></svg>