<svg version="1.1" id="Layer_1" xmlns="http://www.w3.org/2000/svg" xmlns:xlink="http://www.w3.org/1999/xlink" x="0px" y="0px"
	 width="100%" viewBox="0 0 424 271" enable-background="new 0 0 424 271" xml:space="preserve">
<path fill="#FFFFFF" opacity="1.000000" stroke="none" 
	d="
M353.000000,1.000000 
	C376.990723,1.000000 400.981476,1.000000 424.979126,0.999999 
	C424.986084,91.289185 424.986084,181.578369 424.986084,271.933777 
	C283.765442,271.933777 142.530807,271.933777 1.148099,271.933777 
	C1.148099,181.666840 1.148099,91.333450 1.148099,1.000000 
	C32.420197,1.000000 63.741440,1.000000 95.530296,1.468656 
	C95.997910,90.857529 95.997910,179.777740 95.997910,268.694885 
	C181.961945,268.694885 267.348450,268.694885 353.000000,268.694885 
	C353.000000,179.258484 353.000000,90.129242 353.000000,1.000000 
z"/>
<path fill="#2F3293" opacity="1.000000" stroke="none" 
	d="
M352.531342,1.000000 
	C353.000000,90.129242 353.000000,179.258484 353.000000,268.694885 
	C267.348450,268.694885 181.961945,268.694885 95.997910,268.694885 
	C95.997910,179.777740 95.997910,90.857529 95.998955,1.468656 
	C181.354233,1.000000 266.708466,1.000000 352.531342,1.000000 
M322.940582,94.553619 
	C311.660309,38.154556 253.559570,2.849185 197.192810,18.616875 
	C137.732178,35.250031 107.152542,100.033676 132.864807,157.259232 
	C153.702347,203.635544 204.514755,226.579376 253.659943,211.847626 
	C301.371399,197.545639 333.452820,150.094681 322.940582,94.553619 
z"/>
<path fill="#F7F0F1" opacity="1.000000" stroke="none" 
	d="
M322.989136,94.979950 
	C333.452820,150.094681 301.371399,197.545639 253.659943,211.847626 
	C204.514755,226.579376 153.702347,203.635544 132.864807,157.259232 
	C107.152542,100.033676 137.732178,35.250031 197.192810,18.616875 
	C253.559570,2.849185 311.660309,38.154556 322.989136,94.979950 
M172.820435,193.747375 
	C172.820435,193.747375 173.020172,193.420120 173.418106,193.574509 
	C173.698624,193.467896 173.908279,193.281525 174.699799,193.342621 
	C175.025864,194.296494 175.351944,195.250366 175.434143,195.490845 
	C177.920166,194.945404 179.858871,194.520050 181.797592,194.094696 
	C181.797592,196.032394 181.797592,197.970108 181.797592,200.825958 
	C183.114258,199.426041 183.805115,198.790070 184.375092,198.059769 
	C185.039841,197.208084 185.598969,196.273941 186.517090,194.910507 
	C187.266510,203.645554 188.896942,205.079422 195.571381,202.902237 
	C196.070374,202.942902 196.569366,202.983566 196.972473,203.788086 
	C198.311523,204.866837 199.650558,205.945572 201.358749,207.301392 
	C201.358749,207.301392 201.819672,207.276672 202.291580,207.604889 
	C202.853043,207.601959 203.414505,207.599045 204.445694,207.712906 
	C204.798309,207.616058 205.003387,207.387039 205.715530,206.778549 
	C206.145126,206.794891 206.574738,206.811218 207.151855,207.629456 
	C210.570419,207.875168 213.988998,208.120880 217.916016,208.403122 
	C217.423370,206.197617 216.796585,203.014175 215.958252,199.887436 
	C215.731232,199.040695 214.812637,197.712646 214.302521,197.753113 
	C213.360855,197.827820 212.207321,198.553421 211.636642,199.358444 
	C209.936737,201.756348 208.476807,204.324356 206.897354,205.876328 
	C206.840012,205.253799 206.782684,204.631271 206.779236,203.230423 
	C207.309479,200.258560 209.569489,196.625275 203.390106,195.745621 
	C202.977966,195.590805 202.565811,195.435974 201.923950,194.796539 
	C200.233749,194.236404 198.543533,193.676270 196.431625,193.264313 
	C196.127808,193.397186 195.955551,193.628250 195.336090,194.523804 
	C195.196518,196.338440 195.056946,198.153076 194.853302,199.906128 
	C194.853302,199.906128 194.764648,199.912476 194.212799,199.604752 
	C193.813828,200.053497 193.414871,200.502258 192.275406,201.134720 
	C191.524063,201.115112 190.772705,201.095490 189.713669,200.489838 
	C190.175186,198.066483 190.636703,195.643127 191.408203,192.931412 
	C191.270691,192.635468 191.133163,192.339523 190.423706,191.605026 
	C189.105530,191.122971 187.052460,189.844131 186.580460,190.279480 
	C180.404480,195.975876 182.150070,189.687332 180.549500,187.916687 
	C179.666916,186.952347 178.784332,185.988007 177.881180,184.340027 
	C176.250473,182.811859 174.619766,181.283691 172.617935,179.407745 
	C169.990631,182.924866 167.780319,185.883743 165.332870,189.160065 
	C167.203461,190.403641 168.550034,191.298843 170.021698,192.635605 
	C170.021698,192.635605 170.273132,193.019501 170.224991,193.447891 
	C170.224991,193.447891 170.547333,193.733414 170.547333,193.733414 
	C170.547333,193.733414 170.948914,193.577713 171.759293,193.730194 
	C172.027679,193.789505 172.296082,193.848801 172.381805,194.165543 
	C172.381805,194.165543 172.563248,194.311386 172.563248,194.311386 
	C172.563248,194.311386 172.469894,193.902634 172.820435,193.747375 
M254.266754,204.520966 
	C254.926758,204.389877 255.586761,204.258804 256.694092,203.520569 
	C256.630524,202.045944 256.566956,200.571304 256.929047,198.526321 
	C257.898804,199.339966 258.761963,200.578293 259.866364,200.855499 
	C261.134613,201.173828 262.616577,200.640808 264.737427,200.442932 
	C267.929352,198.474060 270.521423,195.173813 274.940338,195.867172 
	C275.118195,195.895081 275.441650,194.994873 275.284424,195.282578 
	C273.026825,193.272308 271.084076,191.344559 268.923431,189.703766 
	C267.875458,188.907959 266.419220,188.649841 265.147797,188.148300 
	C264.827332,189.336349 264.300171,190.511887 264.227325,191.714920 
	C264.048828,194.663391 264.079926,197.624557 263.554718,199.843750 
	C263.036285,196.581024 262.517853,193.318314 261.999420,190.055588 
	C261.402679,190.116852 260.805969,190.178131 260.209229,190.239395 
	C260.046600,191.894501 259.883942,193.549606 259.699280,195.428696 
	C258.040100,195.020142 256.412354,194.619324 255.194839,194.319519 
	C253.984482,195.693573 253.084686,196.715073 251.964706,197.059753 
	C250.658951,196.378769 249.353195,195.697784 247.318481,195.037399 
	C246.221634,195.322327 245.124802,195.607254 243.282974,195.942215 
	C242.202744,197.623978 241.122528,199.305725 239.253265,200.999344 
	C237.830109,201.351730 236.406952,201.704117 234.499252,201.938599 
	C234.499252,201.938599 234.017975,201.808044 233.843201,201.471100 
	C233.700592,201.252548 233.509903,201.090591 233.493484,200.320435 
	C235.220047,199.688507 236.946594,199.056595 238.673141,198.424683 
	C238.547958,197.884430 238.422775,197.344193 238.297592,196.803940 
	C235.876038,197.259750 233.454498,197.715546 230.279633,198.302902 
	C228.588547,199.994156 226.897461,201.685410 224.983612,203.599457 
	C223.925751,202.205505 222.575241,200.425934 220.389236,197.545441 
	C219.862106,202.707321 218.120697,206.352692 221.040207,211.270065 
	C221.885376,208.348328 222.333908,206.797760 222.994400,204.514465 
	C224.788239,207.012253 226.110840,208.853851 227.685806,211.046875 
	C228.934921,208.001389 229.931442,205.571716 230.908676,203.953461 
	C231.692062,205.847916 232.328949,209.232407 233.289352,209.326843 
	C235.292664,209.523819 237.466919,207.982178 240.406891,207.114655 
	C240.957428,207.068054 241.507950,207.021439 242.730331,207.249405 
	C245.114594,206.816208 247.498871,206.383011 250.418854,205.671768 
	C250.511261,205.295578 250.603668,204.919388 250.598068,203.949982 
	C250.452789,203.369431 250.307526,202.788879 251.170227,202.035645 
	C251.508087,201.990341 251.845947,201.945038 252.587387,202.287750 
	C253.068146,202.852249 253.548904,203.416748 254.266754,204.520966 
M304.716217,82.601433 
	C304.066040,84.037994 303.415863,85.474556 302.765686,86.911118 
	C303.097687,87.205803 303.429657,87.500488 303.761658,87.795174 
	C306.891296,86.632256 310.020966,85.469337 314.509064,83.801659 
	C311.049805,82.979187 309.168762,82.531952 307.951996,81.995987 
	C309.432007,80.286934 310.912048,78.577873 312.392090,76.868813 
	C312.060974,76.472038 311.729858,76.075264 311.398743,75.678490 
	C307.672302,76.450012 303.945862,77.221535 300.664032,77.345383 
	C302.573669,74.299408 304.483337,71.253441 306.396393,68.202011 
	C303.109253,66.036446 297.073853,66.905975 293.903748,70.303436 
	C296.782043,71.446579 300.384735,72.241821 298.241028,76.673180 
	C298.204346,76.749016 299.590149,77.512978 300.472168,78.701721 
	C302.023071,79.806862 303.573975,80.912003 304.716217,82.601433 
M310.496887,124.355568 
	C309.800079,124.569763 309.103241,124.783951 308.406433,124.998138 
	C308.950592,125.631500 309.494751,126.264854 310.029755,127.573494 
	C309.948029,128.012878 309.866302,128.452255 309.166931,128.935928 
	C308.633759,129.330750 308.100616,129.725571 307.567444,130.120392 
	C308.388245,130.739761 309.209076,131.359131 309.576447,132.484589 
	C308.531921,132.903381 307.487396,133.322174 306.442871,133.740967 
	C306.521210,134.022476 306.599548,134.303970 306.677917,134.585480 
	C308.813171,134.324295 310.948456,134.063110 313.778534,133.923065 
	C313.778534,132.763733 313.778534,131.604401 313.778534,131.004807 
	C315.748596,129.793610 317.648285,128.625671 319.547943,127.457733 
	C317.272247,126.598389 314.997681,125.735962 312.718109,124.887016 
	C312.574341,124.833473 312.391357,124.885201 311.915466,124.595726 
	C311.637817,124.416832 311.373474,124.434540 310.496887,124.355568 
M276.113586,36.241306 
	C271.213928,33.589470 269.609375,34.391609 269.074554,39.913830 
	C269.074554,39.913830 268.737091,40.223408 268.062775,40.239983 
	C267.635681,41.438000 266.532867,42.925274 266.900146,43.783230 
	C268.376038,47.231064 271.677673,47.607201 275.578247,44.640972 
	C275.436523,43.751064 275.294830,42.861160 274.959534,41.510479 
	C274.959534,41.510479 274.872101,41.018398 275.638641,41.049381 
	C278.848419,40.312672 278.931396,38.870716 276.113586,36.241306 
M156.221115,49.063232 
	C155.810486,49.701359 155.399857,50.339481 154.834259,51.793800 
	C155.230072,53.870594 155.625870,55.947388 155.231415,58.425270 
	C154.425964,58.229076 153.626144,57.893658 152.814072,57.860714 
	C149.235245,57.715538 146.389725,59.889267 146.747421,62.945637 
	C147.036804,65.418167 149.587021,68.511688 151.943741,69.641579 
	C155.183792,71.194969 157.839935,68.440887 158.492706,65.356247 
	C158.900696,63.428387 157.535553,61.125294 157.741287,58.861870 
	C159.749619,58.985394 162.069473,59.807095 163.698349,59.080246 
	C166.658966,57.759136 168.128647,54.977863 166.316559,51.758900 
	C164.155014,47.919170 160.963623,46.594864 156.221115,49.063232 
M292.002228,63.598289 
	C292.303558,63.824921 292.604919,64.051552 292.596680,64.933907 
	C293.038513,65.661346 293.480347,66.388779 293.922180,67.116219 
	C295.013580,66.222107 296.105011,65.327995 297.875092,64.078918 
	C298.199341,62.601067 298.523590,61.123219 298.847839,59.645367 
	C297.884705,59.718227 296.921570,59.791092 295.332428,59.842770 
	C295.684326,58.623295 296.131409,57.420998 296.355621,56.178482 
	C296.512695,55.308090 296.612488,54.268234 296.266571,53.522671 
	C296.039581,53.033333 294.676361,52.494095 294.328217,52.728638 
	C291.359558,54.728500 288.506897,56.900562 285.619537,59.021065 
	C290.046631,59.762112 290.046631,59.762112 289.941315,62.611317 
	C290.295654,62.742428 290.649963,62.873543 291.370209,63.091064 
	C291.370209,63.091064 291.746185,63.088142 292.002228,63.598289 
M315.008087,110.030373 
	C315.746674,109.988266 316.485260,109.946167 317.872101,109.671097 
	C318.577881,108.434677 320.147980,106.861610 319.822784,106.026718 
	C318.945251,103.773666 317.638489,100.699715 315.791809,100.084946 
	C313.874176,99.446541 310.214478,100.632675 308.999176,102.269867 
	C307.829041,103.846199 308.414398,107.136513 309.092590,109.416779 
	C309.289032,110.077248 312.461395,109.852623 315.008087,110.030373 
M150.002579,155.251419 
	C150.117142,149.929779 145.916428,156.077911 145.219345,153.863358 
	C146.387115,151.388290 147.401886,149.237503 148.416656,147.086716 
	C147.954468,146.707626 147.492264,146.328537 147.030060,145.949448 
	C143.675293,147.695419 140.320526,149.441391 136.965759,151.187378 
	C137.139359,151.596283 137.312943,152.005203 137.486542,152.414124 
	C138.960434,152.414124 140.434326,152.414124 142.174515,152.414124 
	C141.344559,154.492188 140.646957,156.238831 139.660324,158.709167 
	C141.545181,158.709167 142.765503,158.709167 144.639771,159.049789 
	C144.080017,160.485611 143.520264,161.921432 142.960510,163.357269 
	C145.445663,163.231628 147.124390,162.056152 148.981216,161.347137 
	C150.097672,160.920853 151.491714,161.221588 152.761017,161.195587 
	C152.168854,162.367859 151.818680,163.788437 150.929031,164.655487 
	C149.516541,166.032104 147.743744,167.039047 146.123383,168.202377 
	C146.428009,168.734253 146.732620,169.266144 147.037247,169.798019 
	C148.712448,168.992294 150.651352,168.486069 151.994675,167.303375 
	C153.596634,165.893021 156.044815,163.524765 155.689697,162.250580 
	C155.126663,160.230377 152.538284,158.776810 150.813904,157.076294 
	C150.473572,156.740692 150.165359,156.372543 150.002579,155.251419 
M285.700928,47.982899 
	C289.794983,45.691769 286.551727,44.001747 285.073975,42.504906 
	C283.185822,40.592358 281.295105,41.076378 279.624237,43.165382 
	C278.523102,44.542061 277.159546,45.708817 275.472626,47.240452 
	C275.520203,47.841034 275.567810,48.441616 275.879883,49.705311 
	C277.786957,50.977318 279.694061,52.249325 281.601135,53.521332 
	C282.706573,51.713276 283.811981,49.905220 284.969086,48.035042 
	C284.969086,48.035042 285.018616,47.980724 285.700928,47.982899 
M213.570740,190.788086 
	C219.335526,191.009583 225.100311,191.231079 231.509323,191.597839 
	C231.711533,191.510818 231.913742,191.423813 232.975693,191.226654 
	C233.274094,189.504593 233.831436,187.782654 233.832321,186.060440 
	C233.847504,156.935150 234.354767,127.792549 233.460602,98.693512 
	C233.132751,88.023682 236.209808,81.100922 244.777328,75.024979 
	C253.914825,68.544830 262.055725,60.659428 270.695435,53.333473 
	C247.205994,32.873943 204.235001,32.481186 179.107162,53.471649 
	C180.696609,54.385502 182.380615,54.968418 183.551163,56.088131 
	C192.329086,64.484924 200.933304,73.064201 209.760391,81.408127 
	C212.242065,83.753944 213.460480,86.108849 213.298843,89.617905 
	C213.047226,95.079971 213.368607,100.568420 213.240021,106.955597 
	C213.206329,121.705917 213.128510,136.456314 213.152237,151.206543 
	C213.173035,164.122314 213.307892,177.037903 213.570740,190.788086 
M301.357269,126.693169 
	C304.926575,98.540375 296.123047,75.062126 274.850159,55.723598 
	C262.840240,65.869987 251.107864,75.657913 239.592804,85.695183 
	C238.394226,86.739952 238.044571,89.262787 238.042282,91.100754 
	C238.002914,122.729500 238.073837,154.358398 238.150696,185.987198 
	C238.154465,187.539459 238.433456,189.091080 238.587051,190.671356 
	C269.936310,185.843231 294.583374,160.776031 301.357269,126.693169 
M170.691467,169.803528 
	C181.271118,180.004929 193.514664,187.017181 208.074402,190.130447 
	C208.353348,188.900955 208.556580,188.421753 208.557373,187.942230 
	C208.611465,155.157303 208.671310,122.372307 208.617325,89.587509 
	C208.614868,88.098404 207.975983,86.206039 206.951889,85.185532 
	C196.846375,75.115387 186.596542,65.190048 176.415970,55.251339 
	C143.979141,79.845894 135.399734,133.764755 170.691467,169.803528 
M204.839584,23.536793 
	C205.166611,26.072292 205.599380,28.599707 205.794037,31.145329 
	C206.039627,34.357059 208.224335,34.703648 210.360748,33.823086 
	C212.391403,32.986111 215.531525,31.351677 215.628494,29.897476 
	C216.132828,22.334707 212.425293,20.106903 204.839584,23.536793 
M246.786392,28.369696 
	C246.170929,30.520157 245.555450,32.670620 244.939972,34.821079 
	C245.364014,34.988754 245.788055,35.156429 246.212082,35.324104 
	C247.132721,34.209190 248.053360,33.094276 249.113342,31.810617 
	C250.185425,34.004642 251.174332,36.028419 252.163239,38.052197 
	C252.624756,37.998447 253.086273,37.944698 253.547775,37.890949 
	C254.831009,34.247234 256.114258,30.603523 257.760162,25.929966 
	C255.042419,27.054554 253.770386,27.580912 252.550079,28.085867 
	C251.531113,26.531416 250.683838,25.238886 249.275269,23.090099 
	C248.271698,25.161840 247.669647,26.404676 246.786392,28.369696 
M135.722687,94.455368 
	C131.834854,93.213448 131.329987,96.400101 131.541138,98.524727 
	C131.684982,99.972214 133.817596,101.543869 135.411118,102.431061 
	C136.878159,103.247849 138.812881,103.224655 141.382141,103.740120 
	C142.100998,102.179893 143.892639,100.129456 143.782608,98.186729 
	C143.447556,92.271362 139.166656,94.781967 135.722687,94.455368 
M231.682358,27.334305 
	C230.674454,29.032087 228.162964,30.985205 231.343002,32.487663 
	C233.113007,33.323933 235.911423,33.405495 237.562057,32.532837 
	C238.533798,32.019089 238.165634,28.970922 238.400101,27.062632 
	C239.854401,24.476229 239.561462,22.635170 236.349167,21.572653 
	C232.833008,20.409624 230.902222,22.350866 231.682358,27.334305 
M307.758575,141.063416 
	C308.157867,142.939117 308.557190,144.814804 309.071167,147.229233 
	C310.362823,145.751450 311.531006,144.414948 313.501617,142.160355 
	C312.956665,145.220337 312.647308,146.957245 312.337982,148.694138 
	C313.019165,148.872009 313.700348,149.049896 314.381531,149.227768 
	C315.072998,146.511383 317.057526,142.013779 316.218964,141.405045 
	C313.452911,139.397110 309.683441,138.146469 306.260132,138.054092 
	C305.248138,138.026779 304.106812,142.790878 303.024719,145.359283 
	C303.646912,145.611893 304.269073,145.864502 304.891266,146.117111 
	C305.633453,144.578995 306.375671,143.040863 307.758575,141.063416 
M302.326080,150.066757 
	C303.256287,150.757294 304.186462,151.447830 305.345215,152.308029 
	C302.812988,153.122116 300.780304,153.775604 298.747589,154.429092 
	C298.709198,154.973022 298.670807,155.516937 298.632385,156.060867 
	C302.083740,157.595322 305.535065,159.129776 308.986389,160.664230 
	C309.231659,160.148376 309.476929,159.632523 309.722168,159.116669 
	C308.449860,158.119736 307.177521,157.122818 305.655334,155.930115 
	C308.388519,155.176865 310.566101,154.576736 312.743683,153.976593 
	C312.773376,153.514008 312.803040,153.051422 312.832733,152.588837 
	C309.545471,151.058319 306.265198,149.511795 302.942719,148.061996 
	C302.823181,148.009827 302.287720,148.910828 302.326080,150.066757 
M182.169846,42.381798 
	C186.025543,43.555195 188.911743,41.361717 189.346512,38.296028 
	C189.674759,35.981384 187.831955,32.518639 185.854172,31.030556 
	C184.657211,30.129955 180.670654,31.321140 179.155914,32.811192 
	C176.408005,35.514305 178.083572,38.608212 180.323380,41.150543 
	C180.644821,41.515392 181.101379,41.761185 182.169846,42.381798 
M130.057907,117.357430 
	C132.774292,117.986099 135.469498,118.738281 138.213013,119.208694 
	C140.954803,119.678825 142.070557,118.283340 142.110794,115.541916 
	C142.170837,111.450455 140.168442,109.326195 136.251572,109.007462 
	C132.162399,108.674713 130.305954,110.973671 130.057907,117.357430 
M306.784424,97.322075 
	C306.545105,98.126472 306.305756,98.930862 305.777863,100.705078 
	C309.633759,98.210136 312.712128,96.417526 315.501678,94.252769 
	C316.091461,93.795105 315.829010,90.976517 315.614044,90.932533 
	C311.911011,90.174881 308.153809,89.681900 304.524841,89.148041 
	C305.659760,92.253288 306.491791,94.529877 306.784424,97.322075 
M320.454895,119.834557 
	C319.968445,117.764023 319.769623,114.054260 318.945282,113.909630 
	C315.562561,113.316132 311.752930,112.154282 307.556061,115.053177 
	C309.987671,115.996674 311.451202,116.564560 312.913239,117.131645 
	C313.247803,118.759453 313.582397,120.387268 313.916962,122.015083 
	C314.269897,122.012184 314.622803,122.009293 314.975708,122.006393 
	C315.530334,120.335091 316.084961,118.663780 316.639587,116.992477 
	C316.909241,117.015953 317.178925,117.039429 317.448578,117.062912 
	C317.780945,118.904655 318.113312,120.746407 318.703888,124.019035 
	C319.718842,121.945778 320.043640,121.282280 320.454895,119.834557 
M279.177551,186.193680 
	C278.520813,184.699661 277.864075,183.205643 277.207336,181.711624 
	C274.698517,182.955215 272.189667,184.198822 269.659363,185.453064 
	C272.506866,190.424362 276.246124,191.323105 282.171753,188.985748 
	C281.205811,188.234528 280.359253,187.576126 279.177551,186.193680 
M140.720779,75.213966 
	C140.107101,75.743950 138.883179,76.458565 138.978607,76.774017 
	C139.607849,78.853806 147.374084,81.578529 150.059448,80.541321 
	C148.644043,79.329498 147.371231,78.239754 146.187607,77.226379 
	C146.885788,75.144966 147.492416,73.336525 148.288116,70.964432 
	C145.932922,70.259262 144.042831,69.693336 142.152740,69.127419 
	C141.987091,69.633926 141.821442,70.140442 141.655792,70.646957 
	C142.764267,71.539688 143.872757,72.432419 146.115540,74.238686 
	C143.831818,74.821976 142.588333,75.139580 140.720779,75.213966 
M155.918579,175.641693 
	C154.216522,178.426483 155.258698,180.768326 157.881424,181.671188 
	C159.287903,182.155365 161.871613,181.287537 162.903870,180.124390 
	C163.702362,179.224640 163.513809,176.514404 162.708893,175.320251 
	C161.019409,172.813797 158.577469,172.919662 155.918579,175.641693 
M292.802155,175.649963 
	C291.066803,173.234879 288.737152,172.410767 286.525726,174.510315 
	C285.482666,175.500595 284.718781,178.094269 285.299622,179.158127 
	C286.045868,180.524933 288.371796,181.967987 289.838165,181.801437 
	C292.625854,181.484863 293.940552,179.286530 292.802155,175.649963 
M192.545990,37.262707 
	C193.408340,37.186192 194.882309,37.359127 195.032059,36.991978 
	C195.891296,34.885208 196.436356,32.650307 197.172684,30.174137 
	C196.213242,30.174137 194.649155,30.174137 191.793777,30.174137 
	C194.066299,28.574089 195.243439,27.745281 196.420578,26.916473 
	C196.262222,26.540859 196.103882,26.165245 195.945526,25.789629 
	C193.684174,26.409540 191.422806,27.029451 189.020523,27.687998 
	C190.315399,31.267958 191.267319,33.899727 192.545990,37.262707 
M304.621613,168.258087 
	C305.436890,166.532669 306.252136,164.807251 306.506500,164.268951 
	C302.244751,162.855560 298.745544,161.695068 293.815186,160.059921 
	C297.443085,164.076767 300.060791,166.975159 303.342377,170.608551 
	C303.364563,170.563644 303.792450,169.698074 304.621613,168.258087 
M138.438431,138.868866 
	C140.397461,138.177032 142.356506,137.485184 144.315536,136.793350 
	C144.198517,136.284927 144.081482,135.776489 143.964447,135.268066 
	C140.115372,135.268066 136.266281,135.268066 131.723785,135.268066 
	C132.334579,137.495560 133.103256,140.298767 134.033173,143.690002 
	C135.643143,141.604004 136.641235,140.310791 138.438431,138.868866 
M139.185532,122.671684 
	C139.278534,124.423683 139.371552,126.175690 139.464554,127.927689 
	C138.979660,127.969421 138.494781,128.011154 138.009888,128.052887 
	C137.408539,126.637878 136.807205,125.222862 135.638840,122.473610 
	C135.129257,125.515854 134.872787,127.047028 134.633270,128.477036 
	C133.253967,128.477036 132.123367,128.477036 129.884445,128.477036 
	C134.295013,133.077011 138.102020,130.620804 143.174911,129.865051 
	C141.865234,126.893272 140.812729,124.505020 139.185532,122.671684 
M219.795013,31.003334 
	C222.075745,30.982038 226.282104,31.254393 226.337112,30.893688 
	C226.845535,27.559652 226.637207,24.116314 226.637207,20.704746 
	C225.954147,20.679937 225.271103,20.655128 224.588043,20.630322 
	C224.345184,23.660051 224.102341,26.689781 223.874374,29.533789 
	C222.134537,30.116007 220.685699,30.600845 219.795013,31.003334 
M175.990891,48.270706 
	C174.381363,48.270706 172.771835,48.270706 170.809219,48.270706 
	C169.256439,46.568298 167.346130,44.473927 165.435822,42.379555 
	C164.894302,42.854553 164.352768,43.329548 163.811234,43.804546 
	C166.044189,46.812737 168.277130,49.820930 170.702454,53.088280 
	C172.706238,51.391609 174.168854,50.153152 175.990891,48.270706 
M139.230392,143.687210 
	C137.751663,144.568405 136.272934,145.449600 134.794205,146.330795 
	C135.109131,146.961029 135.424057,147.591248 135.738998,148.221481 
	C139.371689,146.759628 143.004395,145.297775 146.637100,143.835907 
	C146.441559,143.185318 146.246017,142.534714 146.050476,141.884109 
	C144.016846,142.390518 141.983215,142.896942 139.230392,143.687210 
M241.251129,28.602785 
	C240.963333,30.374035 240.675522,32.145283 240.387726,33.916531 
	C241.075043,34.055695 241.762360,34.194859 242.449692,34.334023 
	C243.411758,30.696487 244.373825,27.058950 245.335876,23.421415 
	C244.660507,23.208256 243.985138,22.995096 243.309753,22.781937 
	C242.683517,24.460876 242.057266,26.139818 241.251129,28.602785 
M136.727081,83.416550 
	C134.354431,85.798286 133.749680,88.228745 137.027557,90.224167 
	C139.789703,91.905617 142.744324,93.183197 145.723434,89.290154 
	C141.777985,88.393555 136.760147,90.300926 136.727081,83.416550 
M260.687531,33.936707 
	C260.810913,34.287777 260.934326,34.638847 261.057709,34.989906 
	C261.177429,34.592426 261.297150,34.194946 260.687531,33.936707 
z"/>
<path fill="#333594" opacity="1.000000" stroke="none" 
	d="
M301.274048,127.122177 
	C294.583374,160.776031 269.936310,185.843231 238.587051,190.671356 
	C238.433456,189.091080 238.154465,187.539459 238.150696,185.987198 
	C238.073837,154.358398 238.002914,122.729500 238.042282,91.100754 
	C238.044571,89.262787 238.394226,86.739952 239.592804,85.695183 
	C251.107864,75.657913 262.840240,65.869987 274.850159,55.723598 
	C296.123047,75.062126 304.926575,98.540375 301.274048,127.122177 
M248.609604,146.822739 
	C249.054642,146.918198 249.499695,147.013657 249.849655,147.092438 
	C249.849655,147.092438 249.803665,147.177338 249.745316,147.926239 
	C262.238251,153.060196 274.476746,153.280090 287.003693,145.934860 
	C292.054626,141.761948 292.463440,138.879364 287.651154,134.826752 
	C285.352539,132.891006 281.967712,132.245010 278.662750,130.338120 
	C275.092255,130.201950 271.863892,129.787643 271.241028,125.149872 
	C271.127655,124.305801 269.129608,123.714851 267.496399,122.571503 
	C267.396851,120.118538 267.297302,117.665565 267.197784,115.212601 
	C266.329559,115.064270 265.461365,114.915932 264.593140,114.767601 
	C263.018036,118.956284 261.442932,123.144966 259.916931,127.862114 
	C259.904877,128.393936 259.892792,128.925751 259.079865,129.607239 
	C256.729126,130.407394 254.378403,131.207550 251.520279,131.809677 
	C250.355423,132.232544 249.190552,132.655411 247.702423,133.703934 
	C246.936279,135.125366 246.170120,136.546799 244.892029,138.314270 
	C245.226822,140.214966 245.561615,142.115646 246.116165,144.747299 
	C247.057739,145.215591 247.999313,145.683868 248.969193,146.072479 
	C248.969193,146.072479 248.885071,146.064072 248.609604,146.822739 
M258.610809,124.395256 
	C258.264374,123.764694 257.917938,123.134132 257.571533,122.503571 
	C257.153625,122.930710 256.735718,123.357849 256.317810,123.784988 
	C256.920380,124.120216 257.522980,124.455437 258.610809,124.395256 
M259.606476,121.508583 
	C259.606476,121.508583 259.476776,121.593231 259.606476,121.508583 
M260.481293,118.651909 
	C260.481293,118.651909 260.587006,118.454536 260.587006,118.454536 
	C260.587006,118.454536 260.370239,118.487602 260.481293,118.651909 
z"/>
<path fill="#333594" opacity="1.000000" stroke="none" 
	d="
M170.441986,169.553574 
	C135.399734,133.764755 143.979141,79.845894 176.415970,55.251339 
	C186.596542,65.190048 196.846375,75.115387 206.951889,85.185532 
	C207.975983,86.206039 208.614868,88.098404 208.617325,89.587509 
	C208.671310,122.372307 208.611465,155.157303 208.557373,187.942230 
	C208.556580,188.421753 208.353348,188.900955 208.074402,190.130447 
	C193.514664,187.017181 181.271118,180.004929 170.441986,169.553574 
M177.035812,116.428558 
	C177.036987,116.231110 177.038177,116.033661 176.880951,115.153641 
	C173.777695,111.311264 169.720245,113.887108 166.251801,114.052307 
	C164.878006,114.117752 160.247559,112.787949 160.151199,117.723343 
	C159.079239,118.998398 157.139725,120.234535 157.080505,121.555016 
	C156.768875,128.502838 157.035461,135.474289 156.880447,142.432617 
	C156.817276,145.268234 157.867630,146.253082 160.628555,146.195221 
	C166.842789,146.065033 173.061874,146.173019 179.276825,146.062683 
	C180.190994,146.046448 181.093369,145.367050 182.882645,145.046768 
	C185.222351,145.157410 187.562073,145.268066 190.529327,145.806198 
	C193.358017,145.887131 196.186707,145.968048 199.712128,145.539093 
	C199.827515,137.247971 200.041275,128.955444 199.922852,120.667664 
	C199.909363,119.724930 198.030807,118.808853 196.748474,117.375717 
	C196.172623,116.883507 195.596756,116.391304 194.919922,115.310196 
	C194.307571,115.078949 193.695221,114.847710 193.082870,114.616470 
	C193.028717,115.402634 192.974564,116.188797 192.815979,117.803177 
	C192.578476,122.667648 192.237732,127.530235 192.148727,132.397415 
	C192.106720,134.695923 191.767990,136.312180 188.446945,135.394745 
	C186.289322,135.867508 184.131683,136.340271 181.320831,136.912811 
	C180.881287,136.939987 180.441727,136.967148 179.963455,136.058960 
	C179.981110,130.730286 179.860550,125.395966 180.077484,120.075417 
	C180.178802,117.590622 179.332718,116.699707 176.993942,117.006149 
	C176.993942,117.006149 177.020218,117.020706 177.035812,116.428558 
z"/>
<path fill="#363896" opacity="1.000000" stroke="none" 
	d="
M213.447159,106.045692 
	C213.368607,100.568420 213.047226,95.079971 213.298843,89.617905 
	C213.460480,86.108849 212.242065,83.753944 209.760391,81.408127 
	C200.933304,73.064201 192.329086,64.484924 183.551163,56.088131 
	C182.380615,54.968418 180.696609,54.385502 179.107162,53.471649 
	C204.235001,32.481186 247.205994,32.873943 270.695435,53.333473 
	C262.055725,60.659428 253.914825,68.544830 244.777328,75.024979 
	C236.209808,81.100922 233.132751,88.023682 233.460602,98.693512 
	C234.354767,127.792549 233.847504,156.935150 233.832321,186.060440 
	C233.831436,187.782654 233.274094,189.504593 232.424835,191.054169 
	C231.537689,191.071976 231.201385,191.262283 230.865097,191.452591 
	C225.100311,191.231079 219.335526,191.009583 213.842529,190.242889 
	C214.411865,188.975052 214.968323,188.252853 214.969559,187.529694 
	C215.014160,161.437088 215.025482,135.344345 214.941055,109.251938 
	C214.937592,108.181587 213.967117,107.114372 213.447159,106.045692 
M236.441620,55.521397 
	C232.045380,45.107239 220.854980,42.026337 213.072632,49.087521 
	C207.947861,53.737408 206.865524,61.265175 210.460236,67.256935 
	C213.914398,73.014420 221.072449,75.594284 227.319336,73.333206 
	C234.595596,70.699539 237.869675,64.762863 236.441620,55.521397 
M230.993637,145.500000 
	C230.993637,159.259567 230.993637,173.019135 230.993637,186.778687 
	C231.216660,186.774796 231.439697,186.770905 231.662720,186.767014 
	C231.662720,153.254395 231.662720,119.741776 231.662720,86.229164 
	C231.439682,86.229240 231.216629,86.229317 230.993591,86.229393 
	C230.993591,105.652931 230.993591,125.076462 230.993637,145.500000 
z"/>
<path fill="#21238A" opacity="1.000000" stroke="none" 
	d="
M213.343597,106.500641 
	C213.967117,107.114372 214.937592,108.181587 214.941055,109.251938 
	C215.025482,135.344345 215.014160,161.437088 214.969559,187.529694 
	C214.968323,188.252853 214.411865,188.975052 213.753326,189.825638 
	C213.307892,177.037903 213.173035,164.122314 213.152237,151.206543 
	C213.128510,136.456314 213.206329,121.705917 213.343597,106.500641 
z"/>
<path fill="#F04B3F" opacity="1.000000" stroke="none" 
	d="
M193.015900,200.951004 
	C193.414871,200.502258 193.813828,200.053497 194.731903,200.075623 
	C195.107315,201.326981 194.963623,202.107437 194.819946,202.887909 
	C188.896942,205.079422 187.266510,203.645554 186.517090,194.910507 
	C185.598969,196.273941 185.039841,197.208084 184.375092,198.059769 
	C183.805115,198.790070 183.114258,199.426041 181.797592,200.825958 
	C181.797592,197.970108 181.797592,196.032394 181.797592,194.094696 
	C179.858871,194.520050 177.920166,194.945404 175.434143,195.490845 
	C175.351944,195.250366 175.025864,194.296494 174.189575,193.211090 
	C173.442245,193.159485 173.222534,193.273010 173.020172,193.420120 
	C173.020172,193.420120 172.820435,193.747375 172.667938,193.846436 
	C172.515427,193.945496 172.564484,193.908112 172.564484,193.908112 
	C172.296082,193.848801 172.027679,193.789505 171.272278,193.527496 
	C170.643845,193.173874 170.473129,193.072113 170.273132,193.019501 
	C170.273132,193.019501 170.021698,192.635605 170.093277,192.102417 
	C171.091537,190.731003 172.018219,189.892792 172.970718,189.294205 
	C173.130432,189.803757 173.264313,190.073669 173.398193,190.343597 
	C173.282349,189.883804 173.166504,189.424011 173.073547,188.621017 
	C174.698227,187.193100 176.299988,186.108383 177.901749,185.023651 
	C178.784332,185.988007 179.666916,186.952347 180.549500,187.916687 
	C182.150070,189.687332 180.404480,195.975876 186.580460,190.279480 
	C187.052460,189.844131 189.105530,191.122971 190.724243,192.119278 
	C191.049255,192.828949 191.073730,193.024353 191.098206,193.219772 
	C190.636703,195.643127 190.175186,198.066483 190.054138,201.029175 
	C191.268372,201.362671 192.142136,201.156830 193.015900,200.951004 
M187.615570,192.480972 
	C187.834488,192.536285 188.053391,192.591599 188.272293,192.646912 
	C188.131683,192.510086 187.991058,192.373276 187.615570,192.480972 
z"/>
<path fill="#F26652" opacity="1.000000" stroke="none" 
	d="
M205.029434,23.287075 
	C212.425293,20.106903 216.132828,22.334707 215.628494,29.897476 
	C215.531525,31.351677 212.391403,32.986111 210.360748,33.823086 
	C208.224335,34.703648 206.039627,34.357059 205.794037,31.145329 
	C205.599380,28.599707 205.166611,26.072292 205.029434,23.287075 
z"/>
<path fill="#F26353" opacity="1.000000" stroke="none" 
	d="
M246.927002,28.008602 
	C247.669647,26.404676 248.271698,25.161840 249.275269,23.090099 
	C250.683838,25.238886 251.531113,26.531416 252.550079,28.085867 
	C253.770386,27.580912 255.042419,27.054554 257.760162,25.929966 
	C256.114258,30.603523 254.831009,34.247234 253.547775,37.890949 
	C253.086273,37.944698 252.624756,37.998447 252.163239,38.052197 
	C251.174332,36.028419 250.185425,34.004642 249.113342,31.810617 
	C248.053360,33.094276 247.132721,34.209190 246.212082,35.324104 
	C245.788055,35.156429 245.364014,34.988754 244.939972,34.821079 
	C245.555450,32.670620 246.170929,30.520157 246.927002,28.008602 
z"/>
<path fill="#F26051" opacity="1.000000" stroke="none" 
	d="
M135.857971,94.793228 
	C139.166656,94.781967 143.447556,92.271362 143.782608,98.186729 
	C143.892639,100.129456 142.100998,102.179893 141.382141,103.740120 
	C138.812881,103.224655 136.878159,103.247849 135.411118,102.431061 
	C133.817596,101.543869 131.684982,99.972214 131.541138,98.524727 
	C131.329987,96.400101 131.834854,93.213448 135.857971,94.793228 
M135.469742,96.767715 
	C134.999680,97.277107 134.507111,97.769394 134.089493,98.318665 
	C134.040100,98.383614 134.401367,98.760757 134.572266,98.993179 
	C135.026443,98.465858 135.480637,97.938530 135.469742,96.767715 
z"/>
<path fill="#F2594A" opacity="1.000000" stroke="none" 
	d="
M231.466217,27.016830 
	C230.902222,22.350866 232.833008,20.409624 236.349167,21.572653 
	C239.561462,22.635170 239.854401,24.476229 238.400101,27.062632 
	C238.165634,28.970922 238.533798,32.019089 237.562057,32.532837 
	C235.911423,33.405495 233.113007,33.323933 231.343002,32.487663 
	C228.162964,30.985205 230.674454,29.032087 231.466217,27.016830 
z"/>
<path fill="#F1584B" opacity="1.000000" stroke="none" 
	d="
M275.913513,46.969574 
	C277.159546,45.708817 278.523102,44.542061 279.624237,43.165382 
	C281.295105,41.076378 283.185822,40.592358 285.073975,42.504906 
	C286.551727,44.001747 289.794983,45.691769 285.356720,47.712063 
	C284.815308,47.150623 284.618134,46.860020 284.424988,46.262695 
	C283.983887,45.880276 283.538727,45.804573 283.093597,45.728867 
	C283.348694,46.201172 283.603821,46.673473 283.934113,47.418373 
	C284.311981,47.826370 284.614716,47.961765 284.917419,48.097164 
	C283.811981,49.905220 282.706573,51.713276 281.601135,53.521332 
	C279.694061,52.249325 277.786957,50.977318 275.842682,49.035599 
	C275.841492,47.900448 275.877502,47.435009 275.913513,46.969574 
z"/>
<path fill="#F26353" opacity="1.000000" stroke="none" 
	d="
M307.438232,141.283081 
	C306.375671,143.040863 305.633453,144.578995 304.891266,146.117111 
	C304.269073,145.864502 303.646912,145.611893 303.024719,145.359283 
	C304.106812,142.790878 305.248138,138.026779 306.260132,138.054092 
	C309.683441,138.146469 313.452911,139.397110 316.218964,141.405045 
	C317.057526,142.013779 315.072998,146.511383 314.381531,149.227768 
	C313.700348,149.049896 313.019165,148.872009 312.337982,148.694138 
	C312.647308,146.957245 312.956665,145.220337 313.501617,142.160355 
	C311.531006,144.414948 310.362823,145.751450 309.071167,147.229233 
	C308.557190,144.814804 308.157867,142.939117 307.438232,141.283081 
z"/>
<path fill="#F2594A" opacity="1.000000" stroke="none" 
	d="
M156.966080,58.990578 
	C157.535553,61.125294 158.900696,63.428387 158.492706,65.356247 
	C157.839935,68.440887 155.183792,71.194969 151.943741,69.641579 
	C149.587021,68.511688 147.036804,65.418167 146.747421,62.945637 
	C146.389725,59.889267 149.235245,57.715538 152.814072,57.860714 
	C153.626144,57.893658 154.425964,58.229076 155.604492,58.214050 
	C155.977585,58.002827 155.992722,57.955757 155.883545,58.302910 
	C156.198135,58.773403 156.621902,58.896751 157.020203,59.027496 
	C156.994736,59.034889 156.966080,58.990578 156.966080,58.990578 
M149.231949,62.630939 
	C149.588058,63.648613 149.659256,65.183144 150.362625,65.570862 
	C151.628189,66.268494 153.275497,66.471474 154.757294,66.450768 
	C155.167923,66.445023 156.113022,64.562386 155.853592,64.161140 
	C155.033661,62.892998 153.908417,61.629158 152.597305,60.953594 
	C151.946503,60.618256 150.631210,61.572514 149.231949,62.630939 
z"/>
<path fill="#F15042" opacity="1.000000" stroke="none" 
	d="
M143.985825,158.709167 
	C142.765503,158.709167 141.545181,158.709167 139.660324,158.709167 
	C140.646957,156.238831 141.344559,154.492188 142.174515,152.414124 
	C140.434326,152.414124 138.960434,152.414124 137.486542,152.414124 
	C137.312943,152.005203 137.139359,151.596283 136.965759,151.187378 
	C140.320526,149.441391 143.675293,147.695419 147.030060,145.949448 
	C147.492264,146.328537 147.954468,146.707626 148.416656,147.086716 
	C147.401886,149.237503 146.387115,151.388290 145.219345,153.863358 
	C145.916428,156.077911 150.117142,149.929779 149.641113,155.778427 
	C147.515045,157.106674 145.750427,157.907913 143.985825,158.709167 
z"/>
<path fill="#F2594A" opacity="1.000000" stroke="none" 
	d="
M144.312805,158.879471 
	C145.750427,157.907913 147.515045,157.106674 149.561005,156.162415 
	C150.165359,156.372543 150.473572,156.740692 150.813904,157.076294 
	C152.538284,158.776810 155.126663,160.230377 155.689697,162.250580 
	C156.044815,163.524765 153.596634,165.893021 151.994675,167.303375 
	C150.651352,168.486069 148.712448,168.992294 147.037247,169.798019 
	C146.732620,169.266144 146.428009,168.734253 146.123383,168.202377 
	C147.743744,167.039047 149.516541,166.032104 150.929031,164.655487 
	C151.818680,163.788437 152.168854,162.367859 152.761017,161.195587 
	C151.491714,161.221588 150.097672,160.920853 148.981216,161.347137 
	C147.124390,162.056152 145.445663,163.231628 142.960510,163.357269 
	C143.520264,161.921432 144.080017,160.485611 144.312805,158.879471 
z"/>
<path fill="#F15446" opacity="1.000000" stroke="none" 
	d="
M302.136108,149.717194 
	C302.287720,148.910828 302.823181,148.009827 302.942719,148.061996 
	C306.265198,149.511795 309.545471,151.058319 312.832733,152.588837 
	C312.803040,153.051422 312.773376,153.514008 312.743683,153.976593 
	C310.566101,154.576736 308.388519,155.176865 305.655334,155.930115 
	C307.177521,157.122818 308.449860,158.119736 309.722168,159.116669 
	C309.476929,159.632523 309.231659,160.148376 308.986389,160.664230 
	C305.535065,159.129776 302.083740,157.595322 298.632385,156.060867 
	C298.670807,155.516937 298.709198,154.973022 298.747589,154.429092 
	C300.780304,153.775604 302.812988,153.122116 305.345215,152.308029 
	C304.186462,151.447830 303.256287,150.757294 302.136108,149.717194 
z"/>
<path fill="#F1584B" opacity="1.000000" stroke="none" 
	d="
M181.832626,42.221939 
	C181.101379,41.761185 180.644821,41.515392 180.323380,41.150543 
	C178.083572,38.608212 176.408005,35.514305 179.155914,32.811192 
	C180.670654,31.321140 184.657211,30.129955 185.854172,31.030556 
	C187.831955,32.518639 189.674759,35.981384 189.346512,38.296028 
	C188.911743,41.361717 186.025543,43.555195 181.832626,42.221939 
M180.710114,35.540066 
	C181.820618,36.982395 182.838715,38.519573 184.129318,39.777065 
	C184.353836,39.995842 186.354538,39.141350 186.447647,38.596695 
	C186.674622,37.269112 186.716019,35.522957 186.017822,34.502556 
	C184.441345,32.198578 182.500488,32.373718 180.710114,35.540066 
z"/>
<path fill="#F25C4C" opacity="1.000000" stroke="none" 
	d="
M264.026672,200.580612 
	C264.079926,197.624557 264.048828,194.663391 264.227325,191.714920 
	C264.300171,190.511887 264.827332,189.336349 265.147797,188.148300 
	C266.419220,188.649841 267.875458,188.907959 268.923431,189.703766 
	C271.084076,191.344559 273.026825,193.272308 275.284424,195.282578 
	C275.441650,194.994873 275.118195,195.895081 274.940338,195.867172 
	C270.521423,195.173813 267.929352,198.474060 264.368988,200.487061 
	C264.000549,200.531189 264.026672,200.580612 264.026672,200.580612 
z"/>
<path fill="#F25C4C" opacity="1.000000" stroke="none" 
	d="
M314.269470,110.033752 
	C312.461395,109.852623 309.289032,110.077248 309.092590,109.416779 
	C308.414398,107.136513 307.829041,103.846199 308.999176,102.269867 
	C310.214478,100.632675 313.874176,99.446541 315.791809,100.084946 
	C317.638489,100.699715 318.945251,103.773666 319.822784,106.026718 
	C320.147980,106.861610 318.577881,108.434677 317.333740,109.483673 
	C316.791412,108.594147 316.851685,107.884445 316.769745,107.191551 
	C316.609131,105.833435 316.759064,103.625046 316.078522,103.316460 
	C314.782135,102.728600 312.732666,102.755005 311.496460,103.435654 
	C310.620514,103.917969 310.567261,105.894508 309.725891,108.514778 
	C311.821014,107.030815 312.588135,106.487473 313.782166,105.641762 
	C313.986755,107.485786 314.128113,108.759766 314.269470,110.033752 
z"/>
<path fill="#F3725A" opacity="1.000000" stroke="none" 
	d="
M230.927979,203.142044 
	C229.931442,205.571716 228.934921,208.001389 227.685806,211.046875 
	C226.110840,208.853851 224.788239,207.012253 222.994400,204.514465 
	C222.333908,206.797760 221.885376,208.348328 221.040207,211.270065 
	C218.120697,206.352692 219.862106,202.707321 220.389236,197.545441 
	C222.575241,200.425934 223.925751,202.205505 224.983612,203.599457 
	C226.897461,201.685410 228.588547,199.994156 230.644379,198.649200 
	C230.982071,200.377670 230.955017,201.759857 230.927979,203.142044 
z"/>
<path fill="#F2594A" opacity="1.000000" stroke="none" 
	d="
M130.004440,116.929825 
	C130.305954,110.973671 132.162399,108.674713 136.251572,109.007462 
	C140.168442,109.326195 142.170837,111.450455 142.110794,115.541916 
	C142.070557,118.283340 140.954803,119.678825 138.213013,119.208694 
	C135.469498,118.738281 132.774292,117.986099 130.004440,116.929825 
M139.560242,114.767654 
	C138.109344,113.828598 136.724258,112.338959 135.183121,112.154724 
	C134.242188,112.042244 133.061234,113.937569 131.988083,114.931114 
	C132.270111,115.408684 132.552139,115.886253 132.834183,116.363823 
	C135.011765,116.086952 137.189362,115.810081 139.560242,114.767654 
z"/>
<path fill="#F1584B" opacity="1.000000" stroke="none" 
	d="
M297.196411,64.433891 
	C296.105011,65.327995 295.013580,66.222107 293.922180,67.116219 
	C293.480347,66.388779 293.038513,65.661346 292.658020,64.323807 
	C292.394958,63.505192 292.070557,63.296665 291.746185,63.088142 
	C291.746185,63.088142 291.370209,63.091064 291.073669,62.826134 
	C290.570374,62.285847 290.302704,62.096600 289.974152,61.993454 
	C290.046631,59.762112 290.046631,59.762112 285.619537,59.021065 
	C288.506897,56.900562 291.359558,54.728500 294.328217,52.728638 
	C294.676361,52.494095 296.039581,53.033333 296.266571,53.522671 
	C296.612488,54.268234 296.512695,55.308090 296.355621,56.178482 
	C296.131409,57.420998 295.684326,58.623295 295.662598,60.252617 
	C296.393982,61.919605 296.795197,63.176746 297.196411,64.433891 
M292.737732,57.186073 
	C292.623444,57.028259 292.509155,56.870449 292.394836,56.712643 
	C292.417908,56.932430 292.440979,57.152218 292.737732,57.186073 
z"/>
<path fill="#F15549" opacity="1.000000" stroke="none" 
	d="
M307.054138,97.064270 
	C306.491791,94.529877 305.659760,92.253288 304.524841,89.148041 
	C308.153809,89.681900 311.911011,90.174881 315.614044,90.932533 
	C315.829010,90.976517 316.091461,93.795105 315.501678,94.252769 
	C312.712128,96.417526 309.633759,98.210136 305.777863,100.705078 
	C306.305756,98.930862 306.545105,98.126472 307.054138,97.064270 
z"/>
<path fill="#F36458" opacity="1.000000" stroke="none" 
	d="
M320.411682,120.226669 
	C320.043640,121.282280 319.718842,121.945778 318.703888,124.019035 
	C318.113312,120.746407 317.780945,118.904655 317.448578,117.062912 
	C317.178925,117.039429 316.909241,117.015953 316.639587,116.992477 
	C316.084961,118.663780 315.530334,120.335091 314.975708,122.006393 
	C314.622803,122.009293 314.269897,122.012184 313.916962,122.015083 
	C313.582397,120.387268 313.247803,118.759453 312.914001,117.132050 
	C311.451202,116.564560 309.987671,115.996674 307.556061,115.053177 
	C311.752930,112.154282 315.562561,113.316132 318.945282,113.909630 
	C319.769623,114.054260 319.968445,117.764023 320.411682,120.226669 
z"/>
<path fill="#F15446" opacity="1.000000" stroke="none" 
	d="
M206.923126,206.825912 
	C208.476807,204.324356 209.936737,201.756348 211.636642,199.358444 
	C212.207321,198.553421 213.360855,197.827820 214.302521,197.753113 
	C214.812637,197.712646 215.731232,199.040695 215.958252,199.887436 
	C216.796585,203.014175 217.423370,206.197617 217.916016,208.403122 
	C213.988998,208.120880 210.570419,207.875168 207.058319,207.220688 
	C206.964783,206.811920 206.923126,206.825912 206.923126,206.825912 
z"/>
<path fill="#F15042" opacity="1.000000" stroke="none" 
	d="
M155.999634,58.013504 
	C155.625870,55.947388 155.230072,53.870594 155.307449,51.340591 
	C156.272537,51.599312 156.666901,52.411594 157.275665,53.003288 
	C158.760132,54.446121 160.291458,55.862236 161.980011,57.035728 
	C162.126678,57.137653 163.573517,55.368732 164.416412,54.468819 
	C162.811096,53.080936 161.255569,51.628624 159.578781,50.333244 
	C158.780106,49.716228 157.750748,49.397804 156.825882,48.944122 
	C160.963623,46.594864 164.155014,47.919170 166.316559,51.758900 
	C168.128647,54.977863 166.658966,57.759136 163.698349,59.080246 
	C162.069473,59.807095 159.749619,58.985394 157.353683,58.926224 
	C156.966080,58.990578 156.994736,59.034889 157.048660,58.702728 
	C156.732635,58.232300 156.362671,58.094028 155.992722,57.955757 
	C155.992722,57.955757 155.977585,58.002827 155.999634,58.013504 
z"/>
<path fill="#F15446" opacity="1.000000" stroke="none" 
	d="
M172.944885,189.054565 
	C172.018219,189.892792 171.091537,190.731003 170.030731,191.881638 
	C168.550034,191.298843 167.203461,190.403641 165.332870,189.160065 
	C167.780319,185.883743 169.990631,182.924866 172.617935,179.407745 
	C174.619766,181.283691 176.250473,182.811859 177.891464,184.681854 
	C176.299988,186.108383 174.698227,187.193100 173.046112,188.642426 
	C172.995789,189.007050 172.944901,189.054581 172.944885,189.054565 
z"/>
<path fill="#F1584B" opacity="1.000000" stroke="none" 
	d="
M275.107605,45.024734 
	C271.677673,47.607201 268.376038,47.231064 266.900146,43.783230 
	C266.532867,42.925274 267.635681,41.438000 268.442902,40.598114 
	C269.590546,42.036037 270.358032,43.115833 271.125549,44.195629 
	C271.576691,43.810905 272.027832,43.426182 272.479004,43.041454 
	C271.453949,41.892818 270.428894,40.744179 269.403839,39.595543 
	C269.609375,34.391609 271.213928,33.589470 276.068970,36.779099 
	C274.767609,37.316887 273.510864,37.316887 270.835266,37.316887 
	C272.873199,39.185539 273.872650,40.101967 274.872101,41.018394 
	C274.872101,41.018398 274.959534,41.510479 275.034546,42.122437 
	C275.108887,43.497841 275.108246,44.261288 275.107605,45.024734 
z"/>
<path fill="#F36A56" opacity="1.000000" stroke="none" 
	d="
M300.312164,77.955841 
	C299.590149,77.512978 298.204346,76.749016 298.241028,76.673180 
	C300.384735,72.241821 296.782043,71.446579 293.903748,70.303436 
	C297.073853,66.905975 303.109253,66.036446 306.396393,68.202011 
	C304.483337,71.253441 302.573669,74.299408 300.465942,77.661087 
	C300.267853,77.976799 300.312164,77.955841 300.312164,77.955841 
z"/>
<path fill="#F15446" opacity="1.000000" stroke="none" 
	d="
M279.345093,186.555695 
	C280.359253,187.576126 281.205811,188.234528 282.171753,188.985748 
	C276.246124,191.323105 272.506866,190.424362 269.659363,185.453064 
	C272.189667,184.198822 274.698517,182.955215 277.207336,181.711624 
	C277.864075,183.205643 278.520813,184.699661 279.345093,186.555695 
z"/>
<path fill="#F25D4D" opacity="1.000000" stroke="none" 
	d="
M141.032806,75.335571 
	C142.588333,75.139580 143.831818,74.821976 146.115540,74.238686 
	C143.872757,72.432419 142.764267,71.539688 141.655792,70.646957 
	C141.821442,70.140442 141.987091,69.633926 142.152740,69.127419 
	C144.042831,69.693336 145.932922,70.259262 148.288116,70.964432 
	C147.492416,73.336525 146.885788,75.144966 146.187607,77.226379 
	C147.371231,78.239754 148.644043,79.329498 150.059448,80.541321 
	C147.374084,81.578529 139.607849,78.853806 138.978607,76.774017 
	C138.883179,76.458565 140.107101,75.743950 141.032806,75.335571 
z"/>
<path fill="#F36A56" opacity="1.000000" stroke="none" 
	d="
M263.790710,200.212189 
	C264.026672,200.580612 264.000549,200.531189 264.003113,200.504395 
	C262.616577,200.640808 261.134613,201.173828 259.866364,200.855499 
	C258.761963,200.578293 257.898804,199.339966 256.420013,198.855011 
	C254.577484,199.133804 253.243988,199.083893 251.942841,199.053101 
	C251.975204,199.072205 251.907562,199.104996 251.975525,198.762604 
	C252.090607,198.192337 252.137756,197.964462 252.184875,197.736572 
	C253.084686,196.715073 253.984482,195.693573 255.194839,194.319519 
	C256.412354,194.619324 258.040100,195.020142 259.699280,195.428696 
	C259.883942,193.549606 260.046600,191.894501 260.209229,190.239395 
	C260.805969,190.178131 261.402679,190.116852 261.999420,190.055588 
	C262.517853,193.318314 263.036285,196.581024 263.790710,200.212189 
z"/>
<path fill="#F25D4D" opacity="1.000000" stroke="none" 
	d="
M230.918335,203.547760 
	C230.955017,201.759857 230.982071,200.377670 231.021027,198.583420 
	C233.454498,197.715546 235.876038,197.259750 238.297592,196.803940 
	C238.422775,197.344193 238.547958,197.884430 238.673141,198.424683 
	C236.946594,199.056595 235.220047,199.688507 233.343979,200.895416 
	C233.194473,201.470413 233.527405,201.831360 233.527405,201.831360 
	C233.527405,201.831360 234.017975,201.808044 234.017975,201.808044 
	C234.017975,201.808044 234.499252,201.938599 234.896606,202.284653 
	C235.909546,202.792465 236.525131,202.954224 237.416870,203.188553 
	C236.135712,203.924484 234.964386,204.597336 233.793060,205.270172 
	C233.820801,205.663330 233.848526,206.056488 233.876251,206.449646 
	C235.774490,206.684708 237.672729,206.919769 239.570953,207.154846 
	C237.466919,207.982178 235.292664,209.523819 233.289352,209.326843 
	C232.328949,209.232407 231.692062,205.847916 230.918335,203.547760 
z"/>
<path fill="#EF3935" opacity="1.000000" stroke="none" 
	d="
M156.139511,175.351624 
	C158.577469,172.919662 161.019409,172.813797 162.708893,175.320251 
	C163.513809,176.514404 163.702362,179.224640 162.903870,180.124390 
	C161.871613,181.287537 159.287903,182.155365 157.881424,181.671188 
	C155.258698,180.768326 154.216522,178.426483 156.139511,175.351624 
z"/>
<path fill="#EF3633" opacity="1.000000" stroke="none" 
	d="
M292.943909,175.972290 
	C293.940552,179.286530 292.625854,181.484863 289.838165,181.801437 
	C288.371796,181.967987 286.045868,180.524933 285.299622,179.158127 
	C284.718781,178.094269 285.482666,175.500595 286.525726,174.510315 
	C288.737152,172.410767 291.066803,173.234879 292.943909,175.972290 
z"/>
<path fill="#F04836" opacity="1.000000" stroke="none" 
	d="
M310.029877,131.978516 
	C309.209076,131.359131 308.388245,130.739761 307.567444,130.120392 
	C308.100616,129.725571 308.633759,129.330750 309.809265,128.905029 
	C310.892792,128.242172 311.333954,127.610191 311.775116,126.978226 
	C311.196381,126.951553 310.617615,126.924881 310.038879,126.898209 
	C309.494751,126.264854 308.950592,125.631500 308.406433,124.998138 
	C309.103241,124.783951 309.800079,124.569763 310.972931,124.610222 
	C311.448975,124.864876 311.835693,124.946823 311.835693,124.946823 
	C311.835693,124.946823 312.226624,124.887970 312.226624,124.887970 
	C312.391357,124.885201 312.574341,124.833473 312.718109,124.887016 
	C314.997681,125.735962 317.272247,126.598389 319.547943,127.457733 
	C317.648285,128.625671 315.748596,129.793610 313.778534,131.004807 
	C313.778534,131.604401 313.778534,132.763733 313.286835,133.582535 
	C311.873383,132.820847 310.951630,132.399673 310.029877,131.978516 
z"/>
<path fill="#F25C4C" opacity="1.000000" stroke="none" 
	d="
M192.382599,36.897102 
	C191.267319,33.899727 190.315399,31.267958 189.020523,27.687998 
	C191.422806,27.029451 193.684174,26.409540 195.945526,25.789629 
	C196.103882,26.165245 196.262222,26.540859 196.420578,26.916473 
	C195.243439,27.745281 194.066299,28.574089 191.793777,30.174137 
	C194.649155,30.174137 196.213242,30.174137 197.172684,30.174137 
	C196.436356,32.650307 195.891296,34.885208 195.032059,36.991978 
	C194.882309,37.359127 193.408340,37.186192 192.382599,36.897102 
z"/>
<path fill="#F25D4D" opacity="1.000000" stroke="none" 
	d="
M304.420959,168.545303 
	C303.792450,169.698074 303.364563,170.563644 303.342377,170.608551 
	C300.060791,166.975159 297.443085,164.076767 293.815186,160.059921 
	C298.745544,161.695068 302.244751,162.855560 306.506500,164.268951 
	C306.252136,164.807251 305.436890,166.532669 304.420959,168.545303 
z"/>
<path fill="#F04A3C" opacity="1.000000" stroke="none" 
	d="
M250.162247,202.208328 
	C250.307526,202.788879 250.452789,203.369431 250.435089,204.431198 
	C250.142471,205.258209 250.012802,205.604019 249.883133,205.949829 
	C247.498871,206.383011 245.114594,206.816208 242.336182,206.694946 
	C243.855072,205.524399 245.768127,204.908325 248.158463,204.138535 
	C245.003342,202.913574 242.522812,201.950516 240.042297,200.987473 
	C241.122528,199.305725 242.202744,197.623978 243.721649,196.220490 
	C243.630569,197.618546 243.100784,198.738342 242.459457,200.093933 
	C245.032974,200.800354 247.597610,201.504349 250.162247,202.208328 
z"/>
<path fill="#F25D4D" opacity="1.000000" stroke="none" 
	d="
M138.038879,138.943207 
	C136.641235,140.310791 135.643143,141.604004 134.033173,143.690002 
	C133.103256,140.298767 132.334579,137.495560 131.723785,135.268066 
	C136.266281,135.268066 140.115372,135.268066 143.964447,135.268066 
	C144.081482,135.776489 144.198517,136.284927 144.315536,136.793350 
	C142.356506,137.485184 140.397461,138.177032 138.038879,138.943207 
z"/>
<path fill="#EF3935" opacity="1.000000" stroke="none" 
	d="
M206.910248,206.351120 
	C206.923126,206.825912 206.964783,206.811920 206.984558,206.819733 
	C206.574738,206.811218 206.145126,206.794891 205.171936,206.918365 
	C204.331009,207.140671 204.113556,207.319977 203.975967,207.596130 
	C203.414505,207.599045 202.853043,207.601959 202.246246,207.144333 
	C202.900497,205.465668 203.600052,204.247543 204.299622,203.029449 
	C202.655365,203.156876 201.011124,203.284317 199.212372,203.423721 
	C200.016739,205.053345 200.503174,206.038834 200.989609,207.024307 
	C199.650558,205.945572 198.311523,204.866837 197.286682,203.140991 
	C198.648239,199.792801 197.762405,195.871490 202.153671,195.281143 
	C202.565811,195.435974 202.977966,195.590805 203.482300,196.155014 
	C202.742081,197.402298 201.909668,198.240204 201.077240,199.078094 
	C201.862091,199.728745 202.662384,200.361832 203.428116,201.034256 
	C204.540268,202.010864 205.627502,203.015854 206.725357,204.008743 
	C206.782684,204.631271 206.840012,205.253799 206.910248,206.351120 
z"/>
<path fill="#FCDACF" opacity="1.000000" stroke="none" 
	d="
M239.647781,200.993408 
	C242.522812,201.950516 245.003342,202.913574 248.158463,204.138535 
	C245.768127,204.908325 243.855072,205.524399 242.000244,206.557648 
	C241.507950,207.021439 240.957428,207.068054 239.988922,207.134750 
	C237.672729,206.919769 235.774490,206.684708 233.876251,206.449646 
	C233.848526,206.056488 233.820801,205.663330 233.793060,205.270172 
	C234.964386,204.597336 236.135712,203.924484 237.416870,203.188553 
	C236.525131,202.954224 235.909546,202.792465 235.138870,202.343597 
	C236.406952,201.704117 237.830109,201.351730 239.647781,200.993408 
z"/>
<path fill="#F1584B" opacity="1.000000" stroke="none" 
	d="
M300.392151,78.328781 
	C300.312164,77.955841 300.267853,77.976799 300.243652,77.984924 
	C303.945862,77.221535 307.672302,76.450012 311.398743,75.678490 
	C311.729858,76.075264 312.060974,76.472038 312.392090,76.868813 
	C310.912048,78.577873 309.432007,80.286934 307.259918,82.014755 
	C306.086853,82.028069 305.605865,82.022606 305.124878,82.017151 
	C303.573975,80.912003 302.023071,79.806862 300.392151,78.328781 
z"/>
<path fill="#F04836" opacity="1.000000" stroke="none" 
	d="
M139.472870,122.394226 
	C140.812729,124.505020 141.865234,126.893272 143.174911,129.865051 
	C138.102020,130.620804 134.295013,133.077011 129.884445,128.477036 
	C132.123367,128.477036 133.253967,128.477036 134.633270,128.477036 
	C134.872787,127.047028 135.129257,125.515854 135.638840,122.473610 
	C136.807205,125.222862 137.408539,126.637878 138.009888,128.052887 
	C138.494781,128.011154 138.979660,127.969421 139.464554,127.927689 
	C139.371552,126.175690 139.278534,124.423683 139.472870,122.394226 
z"/>
<path fill="#FDE5DB" opacity="1.000000" stroke="none" 
	d="
M156.523499,49.003677 
	C157.750748,49.397804 158.780106,49.716228 159.578781,50.333244 
	C161.255569,51.628624 162.811096,53.080936 164.416412,54.468819 
	C163.573517,55.368732 162.126678,57.137653 161.980011,57.035728 
	C160.291458,55.862236 158.760132,54.446121 157.275665,53.003288 
	C156.666901,52.411594 156.272537,51.599312 155.384918,50.932495 
	C155.399857,50.339481 155.810486,49.701359 156.523499,49.003677 
z"/>
<path fill="#F36458" opacity="1.000000" stroke="none" 
	d="
M219.515945,31.044508 
	C220.685699,30.600845 222.134537,30.116007 223.874374,29.533789 
	C224.102341,26.689781 224.345184,23.660051 224.588043,20.630322 
	C225.271103,20.655128 225.954147,20.679937 226.637207,20.704746 
	C226.637207,24.116314 226.845535,27.559652 226.337112,30.893688 
	C226.282104,31.254393 222.075745,30.982038 219.515945,31.044508 
z"/>
<path fill="#F15549" opacity="1.000000" stroke="none" 
	d="
M175.811188,48.592701 
	C174.168854,50.153152 172.706238,51.391609 170.702454,53.088280 
	C168.277130,49.820930 166.044189,46.812737 163.811234,43.804546 
	C164.352768,43.329548 164.894302,42.854553 165.435822,42.379555 
	C167.346130,44.473927 169.256439,46.568298 170.809219,48.270706 
	C172.771835,48.270706 174.381363,48.270706 175.811188,48.592701 
z"/>
<path fill="#FCD3C1" opacity="1.000000" stroke="none" 
	d="
M250.666229,202.121979 
	C247.597610,201.504349 245.032974,200.800354 242.459457,200.093933 
	C243.100784,198.738342 243.630569,197.618546 244.094147,196.195465 
	C245.124802,195.607254 246.221634,195.322327 247.666443,195.385040 
	C249.312119,196.856796 250.609833,197.980896 251.907562,199.104996 
	C251.907562,199.104996 251.975204,199.072205 251.723450,199.379623 
	C251.709061,200.424606 251.946442,201.162155 252.183807,201.899719 
	C251.845947,201.945038 251.508087,201.990341 250.666229,202.121979 
z"/>
<path fill="#F26353" opacity="1.000000" stroke="none" 
	d="
M139.589981,143.545288 
	C141.983215,142.896942 144.016846,142.390518 146.050476,141.884109 
	C146.246017,142.534714 146.441559,143.185318 146.637100,143.835907 
	C143.004395,145.297775 139.371689,146.759628 135.738998,148.221481 
	C135.424057,147.591248 135.109131,146.961029 134.794205,146.330795 
	C136.272934,145.449600 137.751663,144.568405 139.589981,143.545288 
z"/>
<path fill="#F25D4D" opacity="1.000000" stroke="none" 
	d="
M241.341080,28.210772 
	C242.057266,26.139818 242.683517,24.460876 243.309753,22.781937 
	C243.985138,22.995096 244.660507,23.208256 245.335876,23.421415 
	C244.373825,27.058950 243.411758,30.696487 242.449692,34.334023 
	C241.762360,34.194859 241.075043,34.055695 240.387726,33.916531 
	C240.675522,32.145283 240.963333,30.374035 241.341080,28.210772 
z"/>
<path fill="#F15042" opacity="1.000000" stroke="none" 
	d="
M136.882477,83.763351 
	C136.760147,90.300926 141.777985,88.393555 145.723434,89.290154 
	C142.744324,93.183197 139.789703,91.905617 137.027557,90.224167 
	C133.749680,88.228745 134.354431,85.798286 136.882477,83.763351 
z"/>
<path fill="#F0453B" opacity="1.000000" stroke="none" 
	d="
M304.920532,82.309288 
	C305.605865,82.022606 306.086853,82.028069 306.927765,82.059120 
	C309.168762,82.531952 311.049805,82.979187 314.509064,83.801659 
	C310.020966,85.469337 306.891296,86.632256 303.761658,87.795174 
	C303.429657,87.500488 303.097687,87.205803 302.765686,86.911118 
	C303.415863,85.474556 304.066040,84.037994 304.920532,82.309288 
z"/>
<path fill="#FEE9DF" opacity="1.000000" stroke="none" 
	d="
M314.638763,110.032059 
	C314.128113,108.759766 313.986755,107.485786 313.782166,105.641762 
	C312.588135,106.487473 311.821014,107.030815 309.725891,108.514778 
	C310.567261,105.894508 310.620514,103.917969 311.496460,103.435654 
	C312.732666,102.755005 314.782135,102.728600 316.078522,103.316460 
	C316.759064,103.625046 316.609131,105.833435 316.769745,107.191551 
	C316.851685,107.884445 316.791412,108.594147 317.009644,109.600159 
	C316.485260,109.946167 315.746674,109.988266 314.638763,110.032059 
z"/>
<path fill="#F36655" opacity="1.000000" stroke="none" 
	d="
M206.752289,203.619583 
	C205.627502,203.015854 204.540268,202.010864 203.428116,201.034256 
	C202.662384,200.361832 201.862091,199.728745 201.077240,199.078094 
	C201.909668,198.240204 202.742081,197.402298 203.791199,196.273590 
	C209.569489,196.625275 207.309479,200.258560 206.752289,203.619583 
z"/>
<path fill="#FBC9B9" opacity="1.000000" stroke="none" 
	d="
M202.038818,195.038849 
	C197.762405,195.871490 198.648239,199.792801 197.334625,202.759064 
	C196.569366,202.983566 196.070374,202.942902 195.195648,202.895081 
	C194.963623,202.107437 195.107315,201.326981 195.007828,200.229492 
	C194.764648,199.912476 194.853302,199.906128 195.264435,199.879974 
	C196.101517,197.904221 196.527451,195.954620 196.953217,193.779999 
	C196.953064,193.554977 196.853317,193.116150 196.853317,193.116150 
	C198.543533,193.676270 200.233749,194.236404 202.038818,195.038849 
z"/>
<path fill="#F0453B" opacity="1.000000" stroke="none" 
	d="
M252.385590,202.093735 
	C251.946442,201.162155 251.709061,200.424606 251.691071,199.360504 
	C253.243988,199.083893 254.577484,199.133804 256.207214,199.140198 
	C256.566956,200.571304 256.630524,202.045944 256.100830,203.785004 
	C255.014923,204.026703 254.522293,204.003983 254.029663,203.981247 
	C253.548904,203.416748 253.068146,202.852249 252.385590,202.093735 
z"/>
<path fill="#FBC9B9" opacity="1.000000" stroke="none" 
	d="
M275.255371,41.033886 
	C273.872650,40.101967 272.873199,39.185539 270.835266,37.316887 
	C273.510864,37.316887 274.767609,37.316887 276.301758,37.098190 
	C278.931396,38.870716 278.848419,40.312672 275.255371,41.033886 
z"/>
<path fill="#F36655" opacity="1.000000" stroke="none" 
	d="
M201.174179,207.162842 
	C200.503174,206.038834 200.016739,205.053345 199.212372,203.423721 
	C201.011124,203.284317 202.655365,203.156876 204.299622,203.029449 
	C203.600052,204.247543 202.900497,205.465668 202.010300,206.980225 
	C201.819672,207.276672 201.358749,207.301392 201.174179,207.162842 
z"/>
<path fill="#F25C4C" opacity="1.000000" stroke="none" 
	d="
M297.535767,64.256409 
	C296.795197,63.176746 296.393982,61.919605 295.975586,60.263210 
	C296.921570,59.791092 297.884705,59.718227 298.847839,59.645367 
	C298.523590,61.123219 298.199341,62.601067 297.535767,64.256409 
z"/>
<path fill="#F68E73" opacity="1.000000" stroke="none" 
	d="
M309.803162,132.231552 
	C310.951630,132.399673 311.873383,132.820847 312.939453,133.521973 
	C310.948456,134.063110 308.813171,134.324295 306.677917,134.585480 
	C306.599548,134.303970 306.521210,134.022476 306.442871,133.740967 
	C307.487396,133.322174 308.531921,132.903381 309.803162,132.231552 
z"/>
<path fill="#F0453B" opacity="1.000000" stroke="none" 
	d="
M251.975525,198.762604 
	C250.609833,197.980896 249.312119,196.856796 248.030914,195.374756 
	C249.353195,195.697784 250.658951,196.378769 252.074799,197.398163 
	C252.137756,197.964462 252.090607,198.192337 251.975525,198.762604 
z"/>
<path fill="#F04B3F" opacity="1.000000" stroke="none" 
	d="
M196.953384,194.005005 
	C196.527451,195.954620 196.101517,197.904221 195.296478,199.910767 
	C195.056946,198.153076 195.196518,196.338440 195.884796,194.260437 
	C196.606812,193.999710 196.780090,194.002365 196.953384,194.005005 
z"/>
<path fill="#F25D4D" opacity="1.000000" stroke="none" 
	d="
M310.034302,127.235855 
	C310.617615,126.924881 311.196381,126.951553 311.775116,126.978226 
	C311.333954,127.610191 310.892792,128.242172 310.118103,128.882889 
	C309.866302,128.452255 309.948029,128.012878 310.034302,127.235855 
z"/>
<path fill="#FBC9B9" opacity="1.000000" stroke="none" 
	d="
M275.342926,44.832855 
	C275.108246,44.261288 275.108887,43.497841 275.131348,42.352821 
	C275.294830,42.861160 275.436523,43.751064 275.342926,44.832855 
z"/>
<path fill="#F15549" opacity="1.000000" stroke="none" 
	d="
M192.645660,201.042862 
	C192.142136,201.156830 191.268372,201.362671 190.207977,201.322205 
	C190.772705,201.095490 191.524063,201.115112 192.645660,201.042862 
z"/>
<path fill="#F36A56" opacity="1.000000" stroke="none" 
	d="
M254.148209,204.251099 
	C254.522293,204.003983 255.014923,204.026703 255.877167,204.088562 
	C255.586761,204.258804 254.926758,204.389877 254.148209,204.251099 
z"/>
<path fill="#FBC9B9" opacity="1.000000" stroke="none" 
	d="
M275.693054,47.105011 
	C275.877502,47.435009 275.841492,47.900448 275.710449,48.704041 
	C275.567810,48.441616 275.520203,47.841034 275.693054,47.105011 
z"/>
<path fill="#F1584B" opacity="1.000000" stroke="none" 
	d="
M261.052185,33.867085 
	C261.297150,34.194946 261.177429,34.592426 261.057739,34.989914 
	C260.934326,34.638847 260.810913,34.287777 261.052185,33.867085 
z"/>
<path fill="#F36655" opacity="1.000000" stroke="none" 
	d="
M204.210831,207.654510 
	C204.113556,207.319977 204.331009,207.140671 204.844635,207.042023 
	C205.003387,207.387039 204.798309,207.616058 204.210831,207.654510 
z"/>
<path fill="#FCD3C1" opacity="1.000000" stroke="none" 
	d="
M250.151001,205.810791 
	C250.012802,205.604019 250.142471,205.258209 250.484100,204.727814 
	C250.603668,204.919388 250.511261,205.295578 250.151001,205.810791 
z"/>
<path fill="#F25D4D" opacity="1.000000" stroke="none" 
	d="
M312.071045,124.741852 
	C312.226624,124.887970 311.835693,124.946823 311.835693,124.946823 
	C311.835693,124.946823 311.448975,124.864876 311.285706,124.756866 
	C311.373474,124.434540 311.637817,124.416832 312.071045,124.741852 
z"/>
<path fill="#FCDACF" opacity="1.000000" stroke="none" 
	d="
M233.930588,201.639572 
	C234.017975,201.808044 233.527405,201.831360 233.527405,201.831360 
	C233.527405,201.831360 233.194473,201.470413 233.232819,201.227814 
	C233.509903,201.090591 233.700592,201.252548 233.930588,201.639572 
z"/>
<path fill="#F15549" opacity="1.000000" stroke="none" 
	d="
M196.953217,193.779999 
	C196.780090,194.002365 196.606812,193.999710 196.174194,193.977280 
	C195.955551,193.628250 196.127808,193.397186 196.642471,193.190231 
	C196.853317,193.116150 196.953064,193.554977 196.953217,193.779999 
z"/>
<path fill="#25298E" opacity="1.000000" stroke="none" 
	d="
M231.187210,191.525208 
	C231.201385,191.262283 231.537689,191.071976 231.994965,191.109238 
	C231.913742,191.423813 231.711533,191.510818 231.187210,191.525208 
z"/>
<path fill="#F25C4C" opacity="1.000000" stroke="none" 
	d="
M291.874207,63.343216 
	C292.070557,63.296665 292.394958,63.505192 292.812805,63.995949 
	C292.604919,64.051552 292.303558,63.824921 291.874207,63.343216 
z"/>
<path fill="#F25C4C" opacity="1.000000" stroke="none" 
	d="
M289.957733,62.302383 
	C290.302704,62.096600 290.570374,62.285847 290.890747,62.782928 
	C290.649963,62.873543 290.295654,62.742428 289.957733,62.302383 
z"/>
<path fill="#F15549" opacity="1.000000" stroke="none" 
	d="
M191.253204,193.075592 
	C191.073730,193.024353 191.049255,192.828949 191.010208,192.338562 
	C191.133163,192.339523 191.270691,192.635468 191.253204,193.075592 
z"/>
<path fill="#F15446" opacity="1.000000" stroke="none" 
	d="
M170.249054,193.233704 
	C170.473129,193.072113 170.643845,193.173874 170.867081,193.451248 
	C170.948914,193.577713 170.547333,193.733414 170.547333,193.733414 
	C170.547333,193.733414 170.224991,193.447891 170.249054,193.233704 
z"/>
<path fill="#F15446" opacity="1.000000" stroke="none" 
	d="
M173.219147,193.497314 
	C173.222534,193.273010 173.442245,193.159485 173.863205,193.047455 
	C173.908279,193.281525 173.698624,193.467896 173.219147,193.497314 
z"/>
<path fill="#F15446" opacity="1.000000" stroke="none" 
	d="
M172.473145,194.036835 
	C172.564484,193.908112 172.515427,193.945496 172.492661,193.924072 
	C172.469894,193.902634 172.563248,194.311386 172.563248,194.311386 
	C172.563248,194.311386 172.381805,194.165543 172.473145,194.036835 
z"/>
<path fill="#46469D" opacity="1.000000" stroke="none" 
	d="
M279.074890,131.014847 
	C281.967712,132.245010 285.352539,132.891006 287.651154,134.826752 
	C292.463440,138.879364 292.054626,141.761948 286.593445,145.649536 
	C286.116089,144.914841 286.048950,144.465439 286.144958,143.705475 
	C286.865021,141.831314 287.421997,140.267746 287.941254,138.810135 
	C283.893616,139.274704 280.897400,139.618591 277.736572,139.970337 
	C277.571960,139.978195 277.248108,140.039383 277.064423,139.731354 
	C275.090515,138.423843 273.300293,137.424362 271.257751,136.184021 
	C269.328064,135.192947 267.650696,134.442734 265.972778,133.413879 
	C265.979431,132.763794 265.986633,132.392334 266.416595,132.052979 
	C270.917877,131.728317 274.996399,131.371582 279.074890,131.014847 
z"/>
<path fill="#EBEAF4" opacity="1.000000" stroke="none" 
	d="
M285.981842,144.016052 
	C286.048950,144.465439 286.116089,144.914841 286.255859,145.698059 
	C274.476746,153.280090 262.238251,153.060196 250.172394,147.456024 
	C251.416840,146.939835 252.234238,146.893860 253.467316,146.903687 
	C254.988434,146.877136 256.093842,146.794785 257.562683,146.692368 
	C260.487793,145.683975 263.049500,144.695648 265.932739,143.619644 
	C267.597839,144.005264 268.924377,144.535797 270.288025,144.941620 
	C275.347137,146.447174 280.403870,147.686508 285.347290,143.998871 
	C285.558685,144.006454 285.981842,144.016052 285.981842,144.016052 
z"/>
<path fill="#3C3D99" opacity="1.000000" stroke="none" 
	d="
M265.993805,132.020889 
	C265.986633,132.392334 265.979431,132.763794 265.772186,133.667969 
	C264.598267,135.025146 263.624390,135.849625 262.269592,136.780457 
	C257.772705,137.213394 253.656693,137.539963 249.521576,137.898438 
	C249.502441,137.930344 249.573547,137.952225 249.565857,137.589645 
	C249.840668,135.857727 250.123154,134.488403 250.414047,133.078293 
	C249.607819,133.078293 248.816757,133.078293 248.025696,133.078293 
	C249.190552,132.655411 250.355423,132.232544 251.942993,132.245636 
	C256.254608,132.058182 260.143524,131.434784 264.317505,130.904816 
	C265.066345,131.339142 265.530060,131.680023 265.993805,132.020889 
z"/>
<path fill="#B5B1D7" opacity="1.000000" stroke="none" 
	d="
M259.867828,127.333649 
	C261.442932,123.144966 263.018036,118.956284 264.593140,114.767601 
	C265.461365,114.915932 266.329559,115.064270 267.197784,115.212601 
	C267.297302,117.665565 267.396851,120.118538 267.726196,123.203796 
	C268.462402,127.369522 265.792175,126.985909 263.722290,127.244415 
	C263.758057,127.190369 263.880981,127.161316 263.913177,126.899864 
	C263.849182,126.330345 263.753021,126.022278 263.656830,125.714211 
	C263.447784,126.110519 263.238739,126.506828 262.629456,126.896118 
	C261.442108,127.037277 260.654968,127.185463 259.867828,127.333649 
z"/>
<path fill="#CECBE4" opacity="1.000000" stroke="none" 
	d="
M263.686554,127.298470 
	C265.792175,126.985909 268.462402,127.369522 267.978821,123.421570 
	C269.129608,123.714851 271.127655,124.305801 271.241028,125.149872 
	C271.863892,129.787643 275.092255,130.201950 278.868835,130.676483 
	C274.996399,131.371582 270.917877,131.728317 266.416595,132.052979 
	C265.530060,131.680023 265.066345,131.339142 264.281494,130.632721 
	C263.914612,130.089767 263.868896,129.912369 263.819275,129.430328 
	C263.772461,128.516617 263.729523,127.907547 263.686554,127.298470 
z"/>
<path fill="#B6B3D8" opacity="1.000000" stroke="none" 
	d="
M249.573547,137.952225 
	C249.573547,137.952225 249.502441,137.930344 249.633484,138.290878 
	C249.838028,139.483521 249.911530,140.315628 250.002716,141.508148 
	C251.030823,143.528351 252.041229,145.188126 253.051620,146.847900 
	C252.234238,146.893860 251.416840,146.939835 250.201569,147.081573 
	C249.803665,147.177338 249.849655,147.092438 249.841202,146.828781 
	C249.516861,146.398102 249.200958,146.231094 248.885071,146.064072 
	C248.885071,146.064072 248.969193,146.072479 248.941895,145.744629 
	C247.908539,144.949951 246.902466,144.483154 245.896408,144.016342 
	C245.561615,142.115646 245.226822,140.214966 245.670486,138.137344 
	C247.490479,137.957687 248.532013,137.954956 249.573547,137.952225 
z"/>
<path fill="#B5B1D7" opacity="1.000000" stroke="none" 
	d="
M263.823181,129.734970 
	C263.868896,129.912369 263.914612,130.089767 263.996399,130.539276 
	C260.143524,131.434784 256.254608,132.058182 252.196686,132.344635 
	C254.378403,131.207550 256.729126,130.407394 259.860046,129.666321 
	C261.701233,129.728607 262.762207,129.731781 263.823181,129.734970 
z"/>
<path fill="#F4F3F9" opacity="1.000000" stroke="none" 
	d="
M249.565857,137.589645 
	C248.532013,137.954956 247.490479,137.957687 245.926453,137.964325 
	C246.170120,136.546799 246.936279,135.125366 247.864059,133.391113 
	C248.816757,133.078293 249.607819,133.078293 250.414047,133.078293 
	C250.123154,134.488403 249.840668,135.857727 249.565857,137.589645 
z"/>
<path fill="#504EA2" opacity="1.000000" stroke="none" 
	d="
M263.819275,129.430328 
	C262.762207,129.731781 261.701233,129.728607 260.260498,129.591492 
	C259.892792,128.925751 259.904877,128.393936 259.892395,127.597885 
	C260.654968,127.185463 261.442108,127.037277 262.818542,127.039124 
	C263.407806,127.189163 263.880981,127.161316 263.880981,127.161316 
	C263.880981,127.161316 263.758057,127.190369 263.722290,127.244415 
	C263.729523,127.907547 263.772461,128.516617 263.819275,129.430328 
z"/>
<path fill="#504EA2" opacity="1.000000" stroke="none" 
	d="
M258.368164,124.592957 
	C257.522980,124.455437 256.920380,124.120216 256.317810,123.784988 
	C256.735718,123.357849 257.153625,122.930710 257.571533,122.503571 
	C257.917938,123.134132 258.264374,123.764694 258.368164,124.592957 
z"/>
<path fill="#EBEAF4" opacity="1.000000" stroke="none" 
	d="
M246.006287,144.381821 
	C246.902466,144.483154 247.908539,144.949951 248.927734,145.784454 
	C247.999313,145.683868 247.057739,145.215591 246.006287,144.381821 
z"/>
<path fill="#504EA2" opacity="1.000000" stroke="none" 
	d="
M259.541626,121.550903 
	C259.476776,121.593231 259.606476,121.508583 259.541626,121.550903 
z"/>
<path fill="#504EA2" opacity="1.000000" stroke="none" 
	d="
M260.425781,118.569756 
	C260.370239,118.487602 260.587006,118.454536 260.587006,118.454536 
	C260.587006,118.454536 260.481293,118.651909 260.425781,118.569756 
z"/>
<path fill="#EBEAF4" opacity="1.000000" stroke="none" 
	d="
M248.747345,146.443405 
	C249.200958,146.231094 249.516861,146.398102 249.888733,146.837128 
	C249.499695,147.013657 249.054642,146.918198 248.747345,146.443405 
z"/>
<path fill="#373996" opacity="1.000000" stroke="none" 
	d="
M160.994186,117.516731 
	C160.247559,112.787949 164.878006,114.117752 166.251801,114.052307 
	C169.720245,113.887108 173.777695,111.311264 176.765076,115.624939 
	C176.560883,116.221359 176.376404,116.432205 176.399460,116.458061 
	C176.584244,116.665337 176.808228,116.837677 177.020218,117.020706 
	C177.020218,117.020706 176.993942,117.006149 176.959503,117.461235 
	C176.925079,124.140129 176.925079,130.363937 176.925079,136.129227 
	C172.540146,136.129227 168.768326,136.129227 164.858856,135.863800 
	C164.191818,135.357422 163.662445,135.116486 163.131073,134.415710 
	C163.128448,129.714951 163.289444,125.464088 163.029312,121.239151 
	C162.950638,119.961418 161.705185,118.755531 160.994186,117.516731 
z"/>
<path fill="#928DC4" opacity="1.000000" stroke="none" 
	d="
M160.572693,117.620041 
	C161.705185,118.755531 162.950638,119.961418 163.029312,121.239151 
	C163.289444,125.464088 163.128448,129.714951 163.044037,134.718781 
	C162.741119,135.621735 162.529556,135.775162 162.297485,135.885345 
	C162.267685,135.899475 162.055908,135.689423 162.055176,135.582367 
	C162.032471,132.286163 162.078735,128.988495 161.994370,125.694130 
	C161.950714,123.988914 161.679749,122.289520 161.511490,120.587502 
	C161.042847,120.635010 160.574219,120.682510 160.105576,120.730019 
	C160.105576,126.458427 160.105576,132.186844 160.181976,138.187256 
	C160.794937,138.968124 161.331497,139.476959 161.964951,140.367554 
	C167.344666,140.492050 172.627487,140.234802 178.177002,139.823059 
	C178.963181,138.777145 179.482681,137.885727 180.002182,136.994308 
	C180.441727,136.967148 180.881287,136.939987 181.950592,136.947891 
	C182.733307,137.036469 182.901978,137.065445 183.034637,137.150574 
	C183.159683,137.230804 183.246780,137.370178 183.350555,137.483521 
	C182.176682,138.184219 181.002838,138.884964 179.828995,139.585693 
	C180.162735,139.916245 180.496475,140.246811 180.830200,140.577362 
	C183.219604,140.858109 185.608994,141.138870 187.886688,141.741104 
	C185.850388,143.039871 183.925797,144.017181 182.001205,144.994476 
	C181.093369,145.367050 180.190994,146.046448 179.276825,146.062683 
	C173.061874,146.173019 166.842789,146.065033 160.628555,146.195221 
	C157.867630,146.253082 156.817276,145.268234 156.880447,142.432617 
	C157.035461,135.474289 156.768875,128.502838 157.080505,121.555016 
	C157.139725,120.234535 159.079239,118.998398 160.572693,117.620041 
z"/>
<path fill="#7973B6" opacity="1.000000" stroke="none" 
	d="
M195.020905,115.899094 
	C195.596756,116.391304 196.172623,116.883507 196.911438,118.008743 
	C197.098831,119.771568 197.070831,120.905334 197.156097,122.030525 
	C197.762894,130.037659 198.392838,138.043045 199.015396,146.048981 
	C196.186707,145.968048 193.358017,145.887131 190.421478,145.245514 
	C191.675674,144.430710 193.058746,144.251602 194.387558,143.879013 
	C194.814453,143.759323 195.098160,143.128967 195.447357,142.732254 
	C194.921448,142.439880 194.395523,142.147491 193.915833,141.540207 
	C193.995499,140.802490 194.028915,140.379669 194.383972,139.917725 
	C195.290558,135.929260 192.106857,139.069839 190.822311,137.945435 
	C189.976181,137.241333 189.471222,136.587585 188.966248,135.933838 
	C191.767990,136.312180 192.106720,134.695923 192.148727,132.397415 
	C192.237732,127.530235 192.578476,122.667648 193.150253,117.297577 
	C193.996658,116.494354 194.508774,116.196724 195.020905,115.899094 
z"/>
<path fill="#837DBB" opacity="1.000000" stroke="none" 
	d="
M161.868073,139.985809 
	C161.331497,139.476959 160.794937,138.968124 160.560150,138.219147 
	C162.240128,137.362427 163.618332,136.745834 164.996521,136.129242 
	C168.768326,136.129227 172.540146,136.129227 176.925079,136.129227 
	C176.925079,130.363937 176.925079,124.140129 176.955048,117.446892 
	C179.332718,116.699707 180.178802,117.590622 180.077484,120.075417 
	C179.860550,125.395966 179.981110,130.730286 179.982819,136.526642 
	C179.482681,137.885727 178.963181,138.777145 177.926834,139.551758 
	C172.143234,137.188400 166.991882,138.198807 161.868073,139.985809 
z"/>
<path fill="#928DC4" opacity="1.000000" stroke="none" 
	d="
M199.363770,145.794037 
	C198.392838,138.043045 197.762894,130.037659 197.156097,122.030525 
	C197.070831,120.905334 197.098831,119.771568 197.045731,118.261093 
	C198.030807,118.808853 199.909363,119.724930 199.922852,120.667664 
	C200.041275,128.955444 199.827515,137.247971 199.363770,145.794037 
z"/>
<path fill="#43439B" opacity="1.000000" stroke="none" 
	d="
M194.062332,139.956863 
	C194.028915,140.379669 193.995499,140.802490 193.546387,141.559921 
	C191.419922,141.736237 189.709152,141.577927 187.998398,141.419617 
	C185.608994,141.138870 183.219604,140.858109 180.830200,140.577362 
	C180.496475,140.246811 180.162735,139.916245 179.828995,139.585693 
	C181.002838,138.884964 182.176682,138.184219 183.350555,137.483521 
	C183.246780,137.370178 183.159683,137.230804 183.034637,137.150574 
	C182.901978,137.065445 182.733307,137.036469 182.277206,136.897995 
	C184.131683,136.340271 186.289322,135.867508 188.706604,135.664291 
	C189.471222,136.587585 189.976181,137.241333 190.926727,138.234909 
	C192.268967,139.035446 193.165649,139.496155 194.062332,139.956863 
z"/>
<path fill="#9B96C9" opacity="1.000000" stroke="none" 
	d="
M187.886688,141.741089 
	C189.709152,141.577927 191.419922,141.736237 193.500137,141.874832 
	C194.395523,142.147491 194.921448,142.439880 195.447357,142.732254 
	C195.098160,143.128967 194.814453,143.759323 194.387558,143.879013 
	C193.058746,144.251602 191.675674,144.430710 190.107697,145.031784 
	C187.562073,145.268066 185.222351,145.157410 182.441925,145.020630 
	C183.925797,144.017181 185.850388,143.039871 187.886688,141.741089 
z"/>
<path fill="#43439B" opacity="1.000000" stroke="none" 
	d="
M194.970413,115.604645 
	C194.508774,116.196724 193.996658,116.494354 193.202469,116.883469 
	C192.974564,116.188797 193.028717,115.402634 193.082870,114.616470 
	C193.695221,114.847710 194.307571,115.078949 194.970413,115.604645 
z"/>
<path fill="#837DBB" opacity="1.000000" stroke="none" 
	d="
M177.028015,116.724632 
	C176.808228,116.837677 176.584244,116.665337 176.399460,116.458061 
	C176.376404,116.432205 176.560883,116.221359 176.844284,115.966225 
	C177.038177,116.033661 177.036987,116.231110 177.028015,116.724632 
z"/>
<path fill="#F8F8FB" opacity="1.000000" stroke="none" 
	d="
M236.580627,55.904816 
	C237.869675,64.762863 234.595596,70.699539 227.319336,73.333206 
	C221.072449,75.594284 213.914398,73.014420 210.460236,67.256935 
	C206.865524,61.265175 207.947861,53.737408 213.072632,49.087521 
	C220.854980,42.026337 232.045380,45.107239 236.580627,55.904816 
z"/>
<path fill="#25298E" opacity="1.000000" stroke="none" 
	d="
M230.993622,145.000000 
	C230.993591,125.076462 230.993591,105.652931 230.993591,86.229393 
	C231.216629,86.229317 231.439682,86.229240 231.662720,86.229164 
	C231.662720,119.741776 231.662720,153.254395 231.662720,186.767014 
	C231.439697,186.770905 231.216660,186.774796 230.993637,186.778687 
	C230.993637,173.019135 230.993637,159.259567 230.993622,145.000000 
z"/>
<path fill="#F15549" opacity="1.000000" stroke="none" 
	d="
M187.733002,192.358704 
	C187.991058,192.373276 188.131683,192.510086 188.272293,192.646912 
	C188.053391,192.591599 187.834488,192.536285 187.733002,192.358704 
z"/>
<path fill="#F15446" opacity="1.000000" stroke="none" 
	d="
M173.023224,188.985626 
	C173.166504,189.424011 173.282349,189.883804 173.398193,190.343597 
	C173.264313,190.073669 173.130432,189.803757 172.970734,189.294220 
	C172.944901,189.054581 172.995789,189.007050 173.023224,188.985626 
z"/>
<path fill="#F7F0F1" opacity="1.000000" stroke="none" 
	d="
M135.702271,97.089462 
	C135.480637,97.938530 135.026443,98.465858 134.572266,98.993179 
	C134.401367,98.760757 134.040100,98.383614 134.089493,98.318665 
	C134.507111,97.769394 134.999680,97.277107 135.702271,97.089462 
z"/>
<path fill="#F7F0F1" opacity="1.000000" stroke="none" 
	d="
M283.858948,47.145767 
	C283.603821,46.673473 283.348694,46.201172 283.093597,45.728867 
	C283.538727,45.804573 283.983887,45.880276 284.283264,46.405571 
	C284.137482,46.855167 283.858948,47.145767 283.858948,47.145767 
z"/>
<path fill="#F7F0F1" opacity="1.000000" stroke="none" 
	d="
M284.279205,46.712292 
	C284.618134,46.860020 284.815308,47.150623 285.015564,47.710976 
	C285.018616,47.980724 284.969086,48.035042 284.943237,48.066101 
	C284.614716,47.961765 284.311981,47.826370 283.934113,47.418373 
	C283.858948,47.145767 284.137482,46.855167 284.279205,46.712292 
z"/>
<path fill="#FEF0EA" opacity="1.000000" stroke="none" 
	d="
M149.424240,62.287148 
	C150.631210,61.572514 151.946503,60.618256 152.597305,60.953594 
	C153.908417,61.629158 155.033661,62.892998 155.853592,64.161140 
	C156.113022,64.562386 155.167923,66.445023 154.757294,66.450768 
	C153.275497,66.471474 151.628189,66.268494 150.362625,65.570862 
	C149.659256,65.183144 149.588058,63.648613 149.424240,62.287148 
z"/>
<path fill="#F7F0F1" opacity="1.000000" stroke="none" 
	d="
M155.883545,58.302910 
	C156.362671,58.094028 156.732635,58.232300 157.074127,58.695335 
	C156.621902,58.896751 156.198135,58.773403 155.883545,58.302910 
z"/>
<path fill="#FDE5DB" opacity="1.000000" stroke="none" 
	d="
M180.804962,35.145645 
	C182.500488,32.373718 184.441345,32.198578 186.017822,34.502556 
	C186.716019,35.522957 186.674622,37.269112 186.447647,38.596695 
	C186.354538,39.141350 184.353836,39.995842 184.129318,39.777065 
	C182.838715,38.519573 181.820618,36.982395 180.804962,35.145645 
z"/>
<path fill="#FEE9DF" opacity="1.000000" stroke="none" 
	d="
M139.463593,115.150436 
	C137.189362,115.810081 135.011765,116.086952 132.834183,116.363823 
	C132.552139,115.886253 132.270111,115.408684 131.988083,114.931114 
	C133.061234,113.937569 134.242188,112.042244 135.183121,112.154724 
	C136.724258,112.338959 138.109344,113.828598 139.463593,115.150436 
z"/>
<path fill="#F25C4C" opacity="1.000000" stroke="none" 
	d="
M292.600891,57.279041 
	C292.440979,57.152218 292.417908,56.932430 292.394836,56.712639 
	C292.509155,56.870449 292.623444,57.028259 292.600891,57.279041 
z"/>
<path fill="#F7F0F1" opacity="1.000000" stroke="none" 
	d="
M269.239197,39.754684 
	C270.428894,40.744179 271.453949,41.892818 272.479004,43.041454 
	C272.027832,43.426182 271.576691,43.810905 271.125549,44.195629 
	C270.358032,43.115833 269.590546,42.036037 268.780060,40.589825 
	C268.737091,40.223408 269.074554,39.913830 269.239197,39.754684 
z"/>
<path fill="#5553A4" opacity="1.000000" stroke="none" 
	d="
M285.135864,143.991272 
	C280.403870,147.686508 275.347137,146.447174 270.288025,144.941620 
	C268.924377,144.535797 267.597839,144.005264 265.782593,143.421692 
	C265.310944,143.311417 264.964417,142.963440 264.971924,142.607056 
	C264.992584,141.536026 265.005768,140.821396 265.390991,140.098389 
	C266.504822,140.100693 267.246643,140.111343 268.194000,140.412537 
	C269.941406,141.096558 271.483246,141.490051 273.056610,142.202057 
	C273.610352,142.737976 274.132568,142.955383 274.654785,143.172791 
	C274.306732,142.491470 273.958649,141.810150 273.355713,141.130569 
	C272.740723,140.723618 272.380615,140.314911 272.457581,139.879272 
	C274.345795,139.914688 275.796967,139.977036 277.248108,140.039383 
	C277.248108,140.039383 277.571960,139.978195 277.819580,140.234100 
	C278.363098,140.699432 278.658966,140.908844 278.972778,141.485107 
	C279.040710,147.437256 283.122070,142.595184 284.861511,144.100311 
	C284.966125,144.119385 285.135864,143.991272 285.135864,143.991272 
z"/>
<path fill="#CECBE4" opacity="1.000000" stroke="none" 
	d="
M267.988434,140.121994 
	C267.246643,140.111343 266.504822,140.100693 265.064331,140.026459 
	C263.566772,139.612030 262.767883,139.261200 262.126099,138.691681 
	C262.405640,137.873367 262.528076,137.273727 262.650513,136.674088 
	C263.624390,135.849625 264.598267,135.025146 265.772766,133.946594 
	C267.650696,134.442734 269.328064,135.192947 271.117126,136.339325 
	C271.228851,136.735489 270.960938,137.052902 270.589539,137.060547 
	C269.474915,138.086136 268.731689,139.104065 267.988434,140.121994 
z"/>
<path fill="#928DC4" opacity="1.000000" stroke="none" 
	d="
M278.954865,141.118256 
	C278.658966,140.908844 278.363098,140.699432 277.984192,140.226257 
	C280.897400,139.618591 283.893616,139.274704 287.941254,138.810135 
	C287.421997,140.267746 286.865021,141.831314 286.144958,143.705475 
	C285.981842,144.016052 285.558685,144.006454 285.347290,143.998871 
	C285.135864,143.991272 284.966125,144.119385 284.806580,143.738358 
	C282.749634,142.610977 280.852264,141.864624 278.954865,141.118256 
z"/>
<path fill="#CECBE4" opacity="1.000000" stroke="none" 
	d="
M277.064423,139.731354 
	C275.796967,139.977036 274.345795,139.914688 272.432373,139.571106 
	C271.633728,138.544205 271.297333,137.798553 270.960938,137.052902 
	C270.960938,137.052902 271.228851,136.735489 271.369446,136.580170 
	C273.300293,137.424362 275.090515,138.423843 277.064423,139.731354 
z"/>
<path fill="#A39FCE" opacity="1.000000" stroke="none" 
	d="
M253.467316,146.903687 
	C252.041229,145.188126 251.030823,143.528351 250.347931,141.461823 
	C252.118668,141.000793 253.561890,140.946533 255.049255,141.253311 
	C255.846085,141.835434 256.585693,142.163208 257.353943,142.257172 
	C259.481323,142.517395 261.620575,142.680145 263.390350,142.966690 
	C261.687531,145.233627 256.785553,141.742584 257.199249,146.712433 
	C256.093842,146.794785 254.988434,146.877136 253.467316,146.903687 
z"/>
<path fill="#5553A4" opacity="1.000000" stroke="none" 
	d="
M257.562683,146.692352 
	C256.785553,141.742584 261.687531,145.233627 263.692688,142.996536 
	C264.561340,142.948547 264.762878,142.955994 264.964417,142.963440 
	C264.964417,142.963440 265.310944,143.311417 265.461060,143.509369 
	C263.049500,144.695648 260.487793,145.683975 257.562683,146.692352 
z"/>
<path fill="#F4F3F9" opacity="1.000000" stroke="none" 
	d="
M255.005096,140.892273 
	C253.561890,140.946533 252.118668,141.000793 250.330246,141.101395 
	C249.911530,140.315628 249.838028,139.483521 249.652618,138.258972 
	C253.656693,137.539963 257.772705,137.213394 262.269592,136.780457 
	C262.528076,137.273727 262.405640,137.873367 261.830841,138.907578 
	C259.254028,139.858856 257.129547,140.375565 255.005096,140.892273 
z"/>
<path fill="#CECBE4" opacity="1.000000" stroke="none" 
	d="
M263.913177,126.899864 
	C263.880981,127.161316 263.407806,127.189163 263.218750,127.046158 
	C263.238739,126.506828 263.447784,126.110519 263.656830,125.714211 
	C263.753021,126.022278 263.849182,126.330345 263.913177,126.899864 
z"/>
<path fill="#6D69B0" opacity="1.000000" stroke="none" 
	d="
M164.858856,135.863800 
	C163.618332,136.745834 162.240128,137.362427 160.483749,137.947144 
	C160.105576,132.186844 160.105576,126.458427 160.105576,120.730019 
	C160.574219,120.682510 161.042847,120.635010 161.511490,120.587502 
	C161.679749,122.289520 161.950714,123.988914 161.994370,125.694130 
	C162.078735,128.988495 162.032471,132.286163 162.055176,135.582367 
	C162.055908,135.689423 162.267685,135.899475 162.297485,135.885345 
	C162.529556,135.775162 162.741119,135.621735 163.046051,135.178619 
	C163.662445,135.116486 164.191818,135.357422 164.858856,135.863800 
z"/>
<path fill="#4A499F" opacity="1.000000" stroke="none" 
	d="
M161.964951,140.367554 
	C166.991882,138.198807 172.143234,137.188400 177.660156,139.706238 
	C172.627487,140.234802 167.344666,140.492050 161.964951,140.367554 
z"/>
<path fill="#9B96C9" opacity="1.000000" stroke="none" 
	d="
M194.383972,139.917725 
	C193.165649,139.496155 192.268967,139.035446 191.267883,138.285248 
	C192.106857,139.069839 195.290558,135.929260 194.383972,139.917725 
z"/>
<path fill="#6663AD" opacity="1.000000" stroke="none" 
	d="
M255.049255,141.253311 
	C257.129547,140.375565 259.254028,139.858856 261.673737,139.126251 
	C262.767883,139.261200 263.566772,139.612030 264.692291,140.034805 
	C265.005768,140.821396 264.992584,141.536026 264.971924,142.607056 
	C264.762878,142.955994 264.561340,142.948547 264.057495,142.911255 
	C261.620575,142.680145 259.481323,142.517395 257.353943,142.257172 
	C256.585693,142.163208 255.846085,141.835434 255.049255,141.253311 
z"/>
<path fill="#B5B1D7" opacity="1.000000" stroke="none" 
	d="
M270.589539,137.060547 
	C271.297333,137.798553 271.633728,138.544205 271.995300,139.598022 
	C272.380615,140.314911 272.740723,140.723618 273.335907,141.300552 
	C273.427155,141.657196 273.245178,141.795441 273.025085,141.883530 
	C271.483246,141.490051 269.941406,141.096558 268.194000,140.412537 
	C268.731689,139.104065 269.474915,138.086136 270.589539,137.060547 
z"/>
<path fill="#6663AD" opacity="1.000000" stroke="none" 
	d="
M278.972778,141.485107 
	C280.852264,141.864624 282.749634,142.610977 284.701965,143.719284 
	C283.122070,142.595184 279.040710,147.437256 278.972778,141.485107 
z"/>
<path fill="#6663AD" opacity="1.000000" stroke="none" 
	d="
M273.056610,142.202057 
	C273.245178,141.795441 273.427155,141.657196 273.590759,141.298798 
	C273.958649,141.810150 274.306732,142.491470 274.654785,143.172791 
	C274.132568,142.955383 273.610352,142.737976 273.056610,142.202057 
z"/>
</svg>